<?xml version="1.0" encoding="UTF-8"?>
<svg viewBox="0 0 500.00006 372.10516" xmlns="http://www.w3.org/2000/svg" xmlns:xlink="http://www.w3.org/1999/xlink">
 <defs>
  <filter id="d">
   <feGaussianBlur stdDeviation="1.73268"/>
  </filter>
  <filter id="aw">
   <feGaussianBlur stdDeviation="1.91852"/>
  </filter>
  <filter id="av">
   <feGaussianBlur stdDeviation="1.42742"/>
  </filter>
  <filter id="au">
   <feGaussianBlur stdDeviation="1.41514"/>
  </filter>
  <filter id="at">
   <feGaussianBlur stdDeviation="1.93218"/>
  </filter>
  <filter id="as">
   <feGaussianBlur stdDeviation="1.44767"/>
  </filter>
  <filter id="ar">
   <feGaussianBlur stdDeviation="1.47425"/>
  </filter>
  <filter id="aq">
   <feGaussianBlur stdDeviation="1.9724"/>
  </filter>
  <filter id="ap">
   <feGaussianBlur stdDeviation="1.71507"/>
  </filter>
  <filter id="ao">
   <feGaussianBlur stdDeviation="1.76414"/>
  </filter>
  <filter id="an">
   <feGaussianBlur stdDeviation="1.79808"/>
  </filter>
  <filter id="am">
   <feGaussianBlur stdDeviation="1.99229"/>
  </filter>
  <filter id="al">
   <feGaussianBlur stdDeviation="3.6914"/>
  </filter>
  <filter id="ak">
   <feGaussianBlur stdDeviation="3.06715"/>
  </filter>
  <linearGradient id="b">
   <stop stop-color="#fff" offset="0"/>
   <stop stop-color="#fff" stop-opacity="0" offset="1"/>
  </linearGradient>
  <linearGradient id="c">
   <stop stop-color="#fff" offset="0"/>
   <stop stop-color="#323232" stop-opacity="0" offset="1"/>
  </linearGradient>
  <linearGradient id="a">
   <stop stop-color="#fff" offset="0"/>
   <stop stop-color="#fff" stop-opacity=".9098" offset=".19734"/>
   <stop stop-color="#fff" stop-opacity="0" offset="1"/>
  </linearGradient>
  <linearGradient id="aj" x1="1002.7" x2="968.56" y1="796.39" y2="794.98" gradientUnits="userSpaceOnUse">
   <stop stop-color="#323232" offset="0"/>
   <stop stop-color="#323232" stop-opacity="0" offset="1"/>
  </linearGradient>
  <linearGradient id="ai" x1="-528" x2="1154.5" y1="-255.64" y2="1006.4" gradientUnits="userSpaceOnUse">
   <stop stop-color="#fff" offset="0"/>
   <stop stop-color="#fff" stop-opacity=".79608" offset=".01854"/>
   <stop stop-color="#fff" stop-opacity=".42222" offset=".2367"/>
   <stop stop-color="#fff" stop-opacity=".375" offset=".67673"/>
   <stop stop-color="#fff" stop-opacity="0" offset="1"/>
  </linearGradient>
  <linearGradient id="ah" x1="-255.07" x2="35.355" y1="-418.42" y2="-269.93" gradientUnits="userSpaceOnUse">
   <stop stop-color="#7e8a8d" offset="0"/>
   <stop stop-color="#7d898c" stop-opacity=".87843" offset=".64331"/>
   <stop stop-color="#7b878a" stop-opacity="0" offset="1"/>
  </linearGradient>
  <linearGradient id="af" x1="1195.1" x2="1175.9" y1="573.86" y2="558.86" gradientUnits="userSpaceOnUse">
   <stop stop-color="#3f403f" offset="0"/>
   <stop stop-color="#b3b5b4" offset=".82527"/>
   <stop stop-color="#1f1f20" offset="1"/>
  </linearGradient>
  <linearGradient id="s" x1="940.96" x2="855.64" y1="129.79" y2="80.297" gradientUnits="userSpaceOnUse">
   <stop offset="0"/>
   <stop stop-opacity="0" offset="1"/>
  </linearGradient>
  <linearGradient id="r" x1="-138.09" x2="-128.55" y1="-357.72" y2="-343.91" gradientUnits="userSpaceOnUse">
   <stop stop-opacity=".71111" offset="0"/>
   <stop stop-opacity="0" offset="1"/>
  </linearGradient>
  <linearGradient id="q" x1="1122.9" x2="1079.8" y1="638.7" y2="603.35" gradientUnits="userSpaceOnUse">
   <stop offset="0"/>
   <stop stop-opacity=".52549" offset=".69962"/>
   <stop stop-opacity="0" offset="1"/>
  </linearGradient>
  <linearGradient id="p" x1="472.07" x2="537.8" y1="623.03" y2="526.32" gradientUnits="userSpaceOnUse">
   <stop offset="0"/>
   <stop stop-opacity=".7098" offset=".49876"/>
   <stop stop-opacity=".01961" offset=".73709"/>
   <stop stop-opacity="0" offset="1"/>
  </linearGradient>
  <linearGradient id="ag" x1="-118.66" x2="-107.33" y1="-388.39" y2="-369.45" gradientUnits="userSpaceOnUse" xlink:href="#b"/>
  <linearGradient id="ae" x1="640.48" x2="584.89" y1="397.83" y2="336.42" gradientUnits="userSpaceOnUse" xlink:href="#a"/>
  <linearGradient id="ad" x1="729.21" x2="679.06" y1="460.14" y2="406.14" gradientUnits="userSpaceOnUse" xlink:href="#a"/>
  <linearGradient id="ac" x1="822.6" x2="762.16" y1="534.52" y2="470.02" gradientUnits="userSpaceOnUse" xlink:href="#a"/>
  <linearGradient id="ab" x1="915.25" x2="839.94" y1="613.69" y2="554.19" gradientUnits="userSpaceOnUse" xlink:href="#a"/>
  <linearGradient id="aa" x1="794.58" x2="730.34" y1="261.66" y2="206.38" gradientUnits="userSpaceOnUse" xlink:href="#a"/>
  <linearGradient id="z" x1="881.69" x2="815.44" y1="321.34" y2="268.84" gradientUnits="userSpaceOnUse" xlink:href="#a"/>
  <linearGradient id="y" x1="982.03" x2="913.56" y1="386.59" y2="332.59" gradientUnits="userSpaceOnUse" xlink:href="#a"/>
  <linearGradient id="x" x1="1059.7" x2="992.22" y1="467.66" y2="416.16" gradientUnits="userSpaceOnUse" xlink:href="#a"/>
  <linearGradient id="w" x1="1015.6" x2="952.97" y1="178.54" y2="132.54" gradientUnits="userSpaceOnUse" xlink:href="#a"/>
  <linearGradient id="v" x1="1101.8" x2="1030.8" y1="246.49" y2="199.99" gradientUnits="userSpaceOnUse" xlink:href="#a"/>
  <linearGradient id="u" x1="1198.6" x2="1119.9" y1="310.29" y2="263.29" gradientUnits="userSpaceOnUse" xlink:href="#a"/>
  <linearGradient id="t" x1="926.99" x2="861.31" y1="129.08" y2="79.075" gradientUnits="userSpaceOnUse" xlink:href="#a"/>
  <linearGradient id="o" x1="388" x2="623.77" y1="-285.04" y2="466.96" gradientUnits="userSpaceOnUse" xlink:href="#b"/>
  <radialGradient id="m" cx="692.96" cy="175.35" r="158.33" gradientTransform="matrix(1.6537 -1.6537 1.3227 1.3227 -663.77 1081.8)" gradientUnits="userSpaceOnUse">
   <stop stop-color="#cdcecb" offset="0"/>
   <stop stop-color="#686968" offset="1"/>
  </radialGradient>
  <radialGradient id="j" cx="535.05" cy="-7.1041" r="158.33" gradientTransform="matrix(.72471 -.41841 .33568 .58142 140.71 265.82)" gradientUnits="userSpaceOnUse">
   <stop stop-opacity=".82778" offset="0"/>
   <stop stop-opacity="0" offset="1"/>
  </radialGradient>
  <radialGradient id="i" cx="741.75" cy="9.9695" r="158.33" gradientTransform="matrix(-.086367 .3537 -.099756 -.024359 699.14 -248.94)" gradientUnits="userSpaceOnUse">
   <stop stop-color="#ffffeb" offset="0"/>
   <stop stop-color="#ffffeb" stop-opacity="0" offset="1"/>
  </radialGradient>
  <radialGradient id="g" cx="649.42" cy="104.73" r="49.07" gradientTransform="matrix(9.3416e-8 1.1528 -.17088 1.9683e-8 667.24 -609.63)" gradientUnits="userSpaceOnUse">
   <stop stop-color="#fffdcc" offset="0"/>
   <stop stop-color="#fff" stop-opacity="0" offset="1"/>
  </radialGradient>
  <radialGradient id="e" cx="647.32" cy="119.21" r="38.843" gradientTransform="matrix(.31465 0 0 .24321 443.64 90.219)" gradientUnits="userSpaceOnUse" spreadMethod="reflect">
   <stop stop-color="#f5f7f6" offset="0"/>
   <stop stop-color="#f5f7f6" stop-opacity=".49804" offset="1"/>
   <stop stop-color="#f5f7f6" stop-opacity=".24706" offset="1"/>
   <stop stop-color="#f5f7f6" stop-opacity="0" offset="1"/>
  </radialGradient>
  <radialGradient id="n" cx="259.55" cy="632.86" r="558.01" gradientTransform="matrix(1.5689 0 0 1.3528 -188.82 -576.33)" gradientUnits="userSpaceOnUse" xlink:href="#b"/>
  <radialGradient id="l" cx="744.29" cy="167.25" r="158.33" gradientTransform="matrix(1.0704 -.1675 .082306 .52594 -66.329 166.53)" gradientUnits="userSpaceOnUse" xlink:href="#c"/>
  <radialGradient id="k" cx="623.35" cy="326.97" r="158.33" gradientTransform="matrix(.71664 .33778 -.22697 .48153 261.57 -148.19)" gradientUnits="userSpaceOnUse" xlink:href="#c"/>
  <radialGradient id="h" cx="290.01" cy="215.02" r="158.33" gradientTransform="matrix(.56367 -.075793 .018117 .13473 272.72 136.83)" gradientUnits="userSpaceOnUse" xlink:href="#b"/>
  <radialGradient id="f" cx="643.68" cy="127.26" r="49.07" gradientTransform="matrix(1.0206 0 0 .86644 -13.249 21.955)" gradientUnits="userSpaceOnUse" xlink:href="#b"/>
 </defs>
 <g transform="matrix(.28127 0 0 .28127 117.74 136.01)">
  <path d="m-418.57-190.14c-0.1786-18.393 3.5714-28.929 20.714-43.036s79.107-67.5 123.39-98.75 67.679-45.714 121.96-73.75 67.679-35.536 121.61-57.5 57.322-20.357 66.964-20.357 55.536 11.607 118.93 41.786 92.679 48.929 154.82 81.071 214.46 117.32 232.32 125.89 133.93 75.179 158.04 89.464 53.036 39.821 86.429 64.286 66.786 50.893 108.39 76.786 108.75 65.536 164.46 96.429 116.96 66.964 167.32 96.25 90.714 53.393 98.571 58.036 21.786 16.607 27.679 28.571 6.6072 26.607 5.7143 33.036-14.643 48.75-21.429 68.036-10.893 27.679-20 43.571-13.036 22.5-36.071 53.036-81.429 109.29-107.14 141.79-90.357 110-107.32 129.29-52.5 61.25-64.464 73.393-20.536 18.75-24.286 20.179-21.429 3.0357-33.929 1.25-43.929-8.2143-54.464-13.75c-65.735-45.234-129.44-92.866-195.18-138.39-44.643-31.071-166.25-114.11-206.07-141.43s-130.36-87.857-173.75-117.14-150.36-101.25-190.71-129.29-140.54-99.464-168.21-118.57-126.25-91.429-165.54-121.07-101.25-80.536-136.61-119.11-50.179-63.036-55.714-76.964-14.821-40.179-15.357-45.357-1.25-7.1429-1.0714-7.6786z"/>
  <path d="m525.03 131.36s-5.3033 11.667-5.3033 17.678 2.1213 13.081 2.1213 13.081l25.102 23.335 70.711 47.023s46.316 9.1924 51.265 6.364 50.205-32.527 63.64-46.315 26.87-30.406 27.577-33.941-2.4748-23.335-4.5962-30.052-1.4142 0.70711-1.4142 0.70711c-19.025 0.16912-36.61 0.33825-54.796 0.50737-2.8984 3.9308 3.8092 18.955 1.0301 22.454-69.76 87.839-111.79 31.302-123.68-2.1397-4.6579-13.102 12.958-13.475 4.912-19.224l-56.57 0.5238z" fill="#696b69"/>
  <path d="m1358.2 310.53-86.219 43.344-299 347.5 36 55.5-2.5-1.5c-2 0-21.5-5-26.5 9-11.359 23.246-10.302 48.16-11.438 74.5 4.486-0.39915 8.0242-0.9497 9.4688-1.5 3.75-1.4286 12.317-8.0446 24.281-20.188s47.504-54.121 64.469-73.406 81.598-96.781 107.31-129.28 84.12-111.25 107.16-141.78 26.955-37.138 36.062-53.031 13.214-24.277 20-43.562c6.2106-17.651 18.225-54.529 20.906-65.594z" fill="url(#aj)"/>
  <path d="m-387.46-167.51c785.92 529.45 1064.8 747.01 1321.5 936.87 1.8402 3.5661 10.025 72.318-1.9286 68.25-27.954-9.5125-31.929-7.2143-42.464-12.75-65.735-45.234-129.44-92.866-195.18-138.39-44.643-31.071-166.25-114.11-206.07-141.43s-130.36-87.857-173.75-117.14-150.36-101.25-190.71-129.29-140.54-99.464-168.21-118.57-126.25-91.429-165.54-121.07-101.25-80.536-136.61-119.11-50.179-63.036-55.714-76.964-14.821-40.179-15.357-45.357 29.863 15.485 30.041 14.949z" fill="url(#ai)" opacity=".34722"/>
  <path d="m-402.64-227c2.2728 0.50508 5.5558-0.25254 44.952 27.274s179.55 122.23 227.54 153.04 177.03 117.68 207.33 137.89 215.42 144.7 215.42 144.7l2.5253 4.7982s169.71-125.76 224.25-172.23 193.95-179.3 193.95-179.3l-2.0203-7.0711s-108.59-65.66-220.21-126.52-210.36-115.92-268.95-147.48-67.428-36.365-113.14-57.074-82.998-33.797-85.271-33.797-14.142 2.4208-62.124 21.614-118.58 55.61-162.22 81.631c-83.565 49.898-114.68 79.013-157.79 113.18-37.616 29.814-44.995 39.353-44.238 39.353z" fill="#d8dad9"/>
  <path d="m23.719-482.78c-2.2729 0-14.143 2.4321-62.125 21.625s-118.58 55.604-162.22 81.625c-83.565 49.898-114.67 79.02-157.78 113.19-37.616 29.814-45.008 39.344-44.25 39.344 2.2728 0.50508 5.5728-0.24541 44.969 27.281s179.55 122.22 227.53 153.03c17.009 10.922 75.459 65.757 104.83 85.301l212.01-445.71 0.03125-3.8125c-29.704-15.836-43.236-22.441-77.719-38.062-45.709-20.708-83.008-33.812-85.281-33.812z" fill="url(#ah)" opacity=".65833"/>
  <path d="m-247.58-303.98 176.03-109.77s4.8667-0.91522 11.231 2.454 14.171 12.342 7.0579 15.711-44.952 27.154-50.193 29.4-10.482 3.3693-15.349 2.9949-13.477 3.7436-17.97 6.7386-27.703 17.595-32.57 20.216-4.8667 5.2411-3.3693 7.1129 7.8616 1.1231-7.8616 9.7335-39.654 27.869-46.767 31.612-13.796-2.2245-17.914-5.5938c-2.4663-2.0178-2.7553-5.4191-3.553-6.4427-1.1581-1.486 0.67506-3.699 1.229-4.1655z" fill="url(#ag)"/>
  <path d="m-242.04-296.81 170.25-106.19s4.6428-3.5714 10.714-0.35715 11.071 6.7857 4.2857 10-41.786 27.857-46.786 30-10 3.2143-14.643 2.8572-12.857 3.5714-17.143 6.4286-26.428 16.786-31.071 19.286-4.6428 5-3.2143 6.7857 7.5 1.0714-7.5 9.2857-38.928 25-45.714 28.571-10.714 2.5-14.643-0.71429c-2.3528-1.925-2.9947-2.5935-3.7557-3.57-1.1048-1.4177-1.3087-1.9422-0.78022-2.3873z"/>
  <path d="m140.72-406.81c-2.9719 1.1144-380.75 247.41-380.75 247.41l2.3125 1.5312 886.97 36.375c2.2166-3.4528 1.0063-5.4333-2.5625-7.8125-6.6866-4.4578-503-278.61-505.97-277.5z" fill="#fff" filter="url(#al)" opacity=".63889"/>
  <path d="m-402.64-227c2.2728 0.50508 5.5558-0.25254 44.952 27.274s179.55 122.23 227.54 153.04 177.03 117.68 207.33 137.89 215.42 144.7 215.42 144.7l2.5253 4.7982s169.71-125.76 224.25-172.23 193.95-179.3 193.95-179.3l-2.0203-7.0711s-108.59-65.66-220.21-126.52-210.36-115.92-268.95-147.48-67.428-36.365-113.14-57.074-82.998-33.797-85.271-33.797-14.142 2.4208-62.124 21.614-118.58 55.61-162.22 81.631c-83.565 49.898-114.68 79.013-157.79 113.18-37.616 29.814-44.995 39.353-44.238 39.353z" fill="url(#n)"/>
  <path d="m-238.66-158.5c3.961 2.5004 439.78 291.22 480.44 317.47 40.863 26.375 37.127 23.391 53.844 11.875s322.1-264.48 339.19-278.59c12.316-10.174 16.518-14.582 15.406-17.906-68.193-2.5274-854.34-31.659-888.88-32.844z" filter="url(#ak)" opacity=".47778"/>
  <path d="m-222.86-157.64s363.21-236.79 366.07-237.86 480 262.5 486.43 266.79 5 7.1429-11.428 20.714-310 256.79-326.07 267.86-12.5 13.929-51.786-11.429-463.57-306.43-463.21-306.07z" fill="#4d4d4d"/>
  <path d="m326.42 250.22c-11.607-6.9643-20.179-8.0357-11.25-15.714 66.684-49.718 142.59-107.31 206.68-160.35 70.189-57.692 126.61-114.51 191.69-177.61 2.3214-1.9643 4.5764-6.4612 14.136 0.45278 11.863 8.5803 58.036 40.893 68.036 48.75s13.75 10.536 13.75 10.536-0.71428 3.2143-2.8571 5.5357-8.5714 9.4643-12.679 12.857-2.6786 6.0714-6.9643 3.75c-14.676-10.787-30.669-16.317-43.178-7.3214-6.0715 3.75-27.714 25.536-39.322 37.321s-14.643 15.357-15.536 16.25-4.8214 4.4643-9.1071 13.393-7.2909 13.319-10.327 16.176-2.8877 6.324-6.2806 4.7168-35.46-29.365-80.893 5.3571c-44.693 34.157-61.249 54.82-61.25 54.821s-16.607 19.107-9.8215 30.893 21.072 22.857 21.072 22.857l1.158 1.5152s-7.5866 4.0205-15.444 6.1633c-7.8002 2.1274-8.768 2.1555-8.768 2.1555s-61.411 46.952-72.303 56.416-10.357 26.25-5.3571 31.786 13.75 11.964 13.75 11.964 0.3571 5.1786-1.25 6.7857-20.179 15.893-23.75 18.929-8.75 5-22.679-6.4286c-23.191-17.688-45.513-36.388-71.25-51.964z" fill="#d8dad9"/>
  <path d="m478.05 361.29s-43.815-32.072-48.866-36.365-6.0609-7.7024-0.505-11.617 21.592-16.92 23.991-18.814 2.7779-3.0304 17.551 6.566 24.749 11.112 43.815-4.0406 70.963-58.715 70.963-58.715 8.8388-3.1567 14.521-7.955 7.1973-6.4397 7.8287-6.6923 1.3889-2.0203 9.4702 3.1567 17.804 11.49 43.563 8.8388 33.209-15.152 50.129-30.936 42.426-39.775 50.886-49.119 11.238-26.643-2.9042-37.628-16.415-13.385-16.415-13.385-4.2932-1.389 1.894-7.5762 10.48-11.49 13.89-15.784 4.0406-5.5558 4.0406-5.5558l52.528-54.801s10.607-11.996 0.75762-22.097-16.289-13.132-16.289-13.132-1.6415-1.7678 0.88388-4.0406 14.142-15.026 15.279-16.289 2.5254-2.1466 15.279 5.9346 48.614 29.294 51.139 30.936 9.0914 7.7024 15.784 11.743 11.743 6.4397 11.996 7.1973 4.0406 2.1466-3.5355 9.7227c-111.26 125.69-236.93 237.48-364.03 346.73-15.279 11.617-17.93 19.824-28.663 11.112s-34.976-27.148-34.976-27.4z" fill="#d8dad9"/>
  <path d="m458.54 233.13 56.316-43.942s5.5558-0.25254 12.879-3.7881 8.5863-5.0508 11.112-5.3033 37.376 23.486 46.214 28.789 13.637 6.8185 13.384 9.0914 1.7678 4.0406-8.8388 9.849-7.0711 1.7678-20.961 13.132-47.477 40.154-59.852 48.992-22.981 12.879-33.082 6.3134-9.0914-6.3134-9.0914-6.3134-23.739-15.152-28.284-21.971-4.5457-17.173 6.566-24.749 13.89-9.849 13.637-10.102z" fill="#d8dad9"/>
  <path d="m697.94 78.323c-15.91-8.8388-21.213-10.102-24.496-13.385s0.2526-5.3033 5.3033-11.869 12.122-18.94 14.142-21.718 31.82-33.082 43.942-45.962 20.961-19.193 36.113-12.374 25.001 14.9 29.547 21.466 11.869 12.879 1.0102 25.001-44.194 45.204-48.74 48.992-8.8388 11.617-13.637 18.94-6.8186 10.859-8.8389 10.607-34.345-19.698-34.345-19.698z" fill="#d8dad9"/>
  <path d="m572.9 429.68c-0.7143-0.35714-30.357-21.25-36.786-25.357s-11.25-6.4286-3.0357-12.857 37.321-30 67.321-55 56.786-49.464 58.036-50.714 4.4643-5.8929 14.464 1.6071 28.214 18.214 35.179 22.143 7.1428 4.6429 8.0357 5 25 18.214 27.5 20.179 6.6071 3.9286-1.0715 10.536-74.464 69.286-96.786 87.679-22.679 19.464-25.179 21.607-6.9643 5-13.75 0.17857-34.286-25.179-33.929-25z" fill="#d7d8d4"/>
  <path d="m632.36 471.65c-10-7.8571-9.4643-9.8214-0.8929-17.143 6.7455-5.7618 47.5-40.536 61.429-52.679s49.821-45 56.429-50.893 4.2857-9.2857 20.714 0.89286 16.071 10.357 16.071 10.357 21.786 12.5 27.321 15.714 18.393 14.643 24.286 19.107 10 4.8214 1.7857 12.679-74.107 68.036-96.607 89.464-20.357 21.25-25.536 24.286-8.9286 2.1429-13.036-0.53571-34.464-24.821-48.036-34.821-23.571-16.429-23.928-16.429z" fill="#d7d8d4"/>
  <path d="m763.44 563.97s-20.179-14.107-33.036-23.214-12.857-8.75-3.0357-17.679 45.357-40.893 66.964-60.714 42.857-41.25 50.714-48.393 6.9643-6.9643 21.607 1.9643 37.143 21.607 41.964 25.179 10.179 6.6071 21.071 15.536 12.857 8.0357 13.393 12.321-3.2143 6.25-15 18.036c-37.223 34.194-71.941 71.121-108.93 105.54-6.7857 6.0714-10.714 3.9286-22.857-5.1786s-32.679-23.036-32.857-23.393z" fill="#d7d8d4"/>
  <path d="m887.19 650.4c-0.53572-0.71429-40.536-29.464-53.214-38.036s-19.643-9.1071-8.75-19.464 51.071-46.964 68.036-63.571 46.786-47.143 51.429-51.786 4.6429-6.0714 23.036 4.8214 29.286 18.75 37.321 23.214 8.0357 3.3928 20 13.036 14.286 9.8214 18.571 13.571 3.9286 5.7143-1.0714 11.429-63.097 65.013-81.847 83.227-29.403 29.987-36.724 35.88-12.5 5.7143-20.893-1.0714-15.893-11.25-15.893-11.25z" fill="#d7d8d4"/>
  <path d="m681.47 284.15c-12.857-7.3214-11.25-8.0357-7.3214-12.321s49.643-44.821 78.214-72.857 56.25-56.964 61.607-62.143 7.3214-4.8214 28.036 7.5 26.071 14.107 30 16.607 20.179 14.821 25.179 18.393 6.0714 5.5357-0.71429 12.143-38.214 39.286-57.679 59.107-68.571 68.214-76.607 75.893-10.357 5.5357-17.321-0.35714-10.714-9.8214-17.321-15.179c-14.838-9.52-30.536-18.04-46.072-26.786z" fill="#d7d8d4"/>
  <path d="m801.83 363.97c-13.571-8.2143-31.607-18.929-34.643-21.429s-8.9286-0.89285 10.714-18.929 60-57.857 81.071-79.464 42.321-45.357 47.143-50.536 4.6429-3.9286 13.929 0.71429 38.929 20.714 43.393 23.571 15.714 11.071 22.143 16.25 9.4643 5.7143 9.6428 9.1071 1.4286 1.0714-9.6428 13.393-59.643 66.607-80.179 87.321-31.786 31.964-41.071 41.429-12.5 14.464-20.536 8.3929-15.714-12.679-21.071-16.964-21.25-13.571-20.893-12.857z" fill="#d7d8d4"/>
  <path d="m906.47 432.36s-25.357-15-35.893-21.607-15-8.0357-5.8929-16.071 51.25-52.679 65.357-67.321 48.75-50.536 58.75-62.143 12.857-20.714 21.964-15.179c17.13 10.996 34.551 21.77 52.411 31.429 1.25 0.89286 14.375 11.429 20.625 16.429s9.6428 5.5357 5 11.25-41.429 49.286-54.464 63.571-63.393 70-72.679 78.75-11.607 13.929-20 7.8572c-5.2107-3.8012-11.75-10.064-19.914-16.537-4.5776-3.6296-9.7883-7.9377-15.264-10.427z" fill="#d7d8d4"/>
  <path d="m1005 497.72s-25.357-16.607-35-22.321-17.5-5.1786-5.3571-17.321 33.571-35.714 59.464-64.107 53.929-63.214 64.643-75.179 9.1071-14.643 28.571-2.3214 32.5 20 37.679 22.5 13.928 10 23.75 16.607 15.714 9.1071 9.2857 17.679-53.393 66.25-68.214 83.214-42.143 50.714-53.929 62.857-11.205 12.054-21.027 5.4464-18.259-13.482-23.795-17.946l-16.071-9.1072z" fill="#d7d8d4"/>
  <path d="m860.85 149.59c-0.44643-0.26785-25.179-12.768-31.339-16.339s-7.6786-5.0893 3.6607-15.625 29.375-30.982 45.536-48.036 28.214-30.982 33.839-37.232 4.375-7.5 25.446 4.7321 50.357 28.304 56.607 32.589 6.4286 6.0714-1.25 14.732-33.125 40.179-50.714 58.304-21.875 24.107-26.786 29.554-6.6964 10.268-19.107 0.89286-15.357-13.036-22.768-16.964-13.125-6.7857-13.125-6.6072z" fill="#d7d8d4"/>
  <path d="m919.95 188.08c-4.2857-2.6786-5.7143-2.9464 6.4286-16.339s29.286-31.339 39.554-43.571 26.25-33.214 33.482-42.143 5.0893-10.357 21.607-0.53571 40.893 23.214 48.839 28.571 11.429 6.7857 16.964 10.268 2.9464 7.3214-3.3929 14.911-25.714 32.589-39.643 48.929-30.893 36.875-35.714 43.75-8.125 6.875-12.5 3.3929-19.643-15-25.893-19.821c-16.961-9.6897-32.737-17.675-49.732-27.411z" fill="#d7d8d4"/>
  <path d="m1016.5 248.97c-8.0357-5-8.3035-6.5178-2.3214-13.839s28.661-32.768 40.089-47.232 21.339-28.393 28.929-37.768 8.75-9.7322 11.875-14.107 3.9285-4.1071 18.661 4.6429 39.732 23.036 53.393 32.232 20.268 8.2143 12.857 18.304-27.321 38.929-35.536 48.839-38.304 46.964-42.143 52.143-7.2321 6.875-11.696 3.5714-19.464-14.643-23.214-18.036c-16.749-9.8979-34.02-18.835-50.893-28.75z" fill="#d7d8d4"/>
  <path d="m1112.5 308.7c-6.5179-3.8393-9.8214-6.25-5.8929-10.714s22.679-28.839 35.446-45.625 33.214-44.821 37.5-51.25 3.0357-4.4643 6.3392-9.2857 8.5715-1.6964 21.607 5.8928 40.446 22.411 51.518 29.643 11.072 6.5179 16.518 9.9107 5.7143 7.1429-2.9464 18.75-26.964 40.714-38.661 56.339-26.518 35.714-30.714 40.446-4.8215 8.75-14.018 3.2143-21.696-16.786-26.071-19.821c-16.14-9.4189-33.723-18.096-50.625-27.5z" fill="#d7d8d4"/>
  <path d="m994.51 804.52 23.688-22.627 14.849-53.74-11.314 9.5459-10.607 40.659-16.971 15.556 0.3535 10.607z"/>
  <path d="m1324 378.86-28 73-206 265 3.5-15.5 167-209.5s0-9-2-10-5.5-17.5-5.5-17.5l76-105.5 4 3.5-9 16.5z"/>
  <path d="m1106.1 642.34c-2.5 10.5 2.7426 20.343 6.2426 17.343s121.5-148.32 132-160.82 47-55 48-59.5 0-12.5-4.5-12 0.5-9 4-11 6.096 10.55 11 1l9.5-18.5c2.8252-5.5017-2-7.5-5.5-9.5-63.859 88.791-132.94 170.76-200.74 252.97z" fill="url(#af)"/>
  <path d="m1036.8 730.86c244.94-287.42 254.35-314.68 305-387.5l2.5-1.5" fill="none" stroke="#000" stroke-linecap="round" stroke-width="3"/>
  <path d="m928.04 685.04c-8.3929-5.1786-7.3341-6.8724 17.309-30.801s91.441-90.806 133.05-139.02 88.75-101.43 125-150.36 52.678-70.357 68.036-92.857 17.143-28.929 25.357-24.286 30.357 16.964 38.214 24.643 18.571 16.964 21.429 28.036-0.1786 16.786-0.7143 18.75-12.5 18.393-16.071 22.857-44.107 66.786-62.679 90.179-112.68 145.71-137.14 174.64-66.786 76.607-89.107 100.18-34.286 40.179-37.857 42.857-10.536 5.7143-11.964 2.5-9.2858-20-17.679-28.929c-16.648-14.662-36.519-26.124-55.179-38.393z" fill="#d8dad9"/>
  <path d="m663.03 282.69c-2.8042 0.08515-4.1406 1.8594-4.8437 2.5625-1.25 1.25-28.031 25.719-58.031 50.719s-59.098 48.571-67.312 55-3.3974 8.7366 3.0312 12.844 36.067 25.018 36.781 25.375c-0.1581-0.07904 5.4233 4.0666 11.969 8.9062 45.445-40.609 90.032-80.271 135-121.47-2.0619-1.4874-3.5479-2.5441-3.75-2.625-0.8929-0.35714-1.0671-1.0714-8.0312-5s-25.188-14.625-35.188-22.125c-4.375-3.2812-7.4439-4.2537-9.625-4.1875z" fill="url(#ae)" filter="url(#d)" opacity=".5"/>
  <path d="m756.19 344.81c-2.6202 0.05947-3.5837 2.4944-7.0937 5.625-6.6073 5.8929-42.509 38.732-56.438 50.875s-54.692 46.926-61.437 52.688c-8.5714 7.3214-9.0938 9.2991 0.9062 17.156 0.3571 0 10.335 6.4062 23.906 16.406 4.2029 3.0968 10.074 7.419 16.219 11.906 49.319-39.475 96.016-80.085 140.81-122.12-5.6537-3.2815-27.188-15.656-27.188-15.656s0.33479-0.19644-16.094-10.375c-7.7009-4.7712-11.282-6.5525-13.594-6.5z" fill="url(#ad)" filter="url(#ap)" opacity=".5"/>
  <path d="m852.12 408.41c-2.1216 0.20264-3.9063 1.9375-7.3438 5.0625-7.8571 7.1429-29.08 28.585-50.688 48.406s-57.147 51.759-66.969 60.688-9.826 8.5803 3.0312 17.688 33.031 23.219 33.031 23.219c0.07231 0.14462 3.8792 2.8134 8.7188 6.1875 47.745-40.924 94.501-82.973 139.75-126.72-1.1528-0.79358-2.231-1.5345-3.2812-2.3125-4.8214-3.5714-27.326-16.259-41.969-25.188-8.2366-5.0223-11.554-7.2918-14.281-7.0312z" fill="url(#ac)" filter="url(#ao)" opacity=".5"/>
  <path d="m949.78 473.56c-2.1829 0.03815-3.3125 1.4375-5.3438 3.4688-4.6429 4.6429-34.473 35.174-51.438 51.781s-57.138 53.237-68.031 63.594-3.9286 10.897 8.75 19.469c8.6364 5.8387 29.368 20.612 42.25 29.938 45.464-44.19 90.857-88.428 134.97-133.47-1.6513-0.87094-3.4422-1.7734-6.1563-3.2812-8.0357-4.4643-18.92-12.295-37.312-23.188-10.346-6.1272-14.881-8.3616-17.688-8.3125z" fill="url(#ab)" filter="url(#an)" opacity=".5"/>
  <path d="m819.5 133.19c-2.2224 0.04604-3.7723 1.183-5.7812 3.125-5.3571 5.1786-33.022 34.121-61.594 62.156s-74.29 68.558-78.219 72.844-5.5446 5.0223 7.3126 12.344c15.355 8.6444 30.846 17.082 45.531 26.469 49.277-45.29 99.119-92.639 151.09-145.38-2.647-1.9317-4.9512-3.5854-6.0938-4.3125-3.9286-2.5-9.2857-4.3036-30-16.625-12.946-7.7009-18.546-10.702-22.25-10.625z" fill="url(#aa)" filter="url(#aw)" opacity=".5"/>
  <path d="m910.53 189.75c-1.4066 0.0589-2.5469 1.1094-4.6562 3.375-4.8214 5.1786-26.085 28.924-47.156 50.531s-61.42 61.433-81.062 79.469-13.754 16.406-10.719 18.906 21.085 13.223 34.656 21.438c-0.27938-0.55875 9.3387 4.9692 16.125 9.4688 51.865-48.931 101.23-99.79 149.22-153-1.4737-1.0275-2.7892-1.9163-3.75-2.5312-4.4643-2.8572-34.121-18.951-43.406-23.594-5.2232-2.6116-7.4416-4.1382-9.25-4.0625z" fill="url(#z)" filter="url(#at)" opacity=".5"/>
  <path d="m1005.3 247.88c-5.4794 0.22616-8.9375 7.7757-16.75 16.844-10 11.607-44.643 47.513-58.75 62.156s-56.237 59.277-65.344 67.312-4.6295 9.4554 5.9062 16.062 35.875 21.625 35.875 21.625c3.5405 1.6096 6.9681 3.9823 10.188 6.4375 51.247-49.796 100.54-101.79 147.16-156.81-0.148-0.11314-0.584-0.47963-0.6563-0.53125-17.86-9.6589-35.276-20.442-52.406-31.438-1.9922-1.2109-3.6845-1.7196-5.2188-1.6562zm45.438 105.38-44.938 50.031c11.913-13.067 23.182-25.44 28.313-31.062 3.8977-4.2716 9.9746-11.255 16.625-18.969z" fill="url(#y)" filter="url(#aq)" opacity=".5"/>
  <path d="m1100.2 307.94c-3.7438 0.25792-5.9643 3.9877-11.656 10.344-10.714 11.964-38.732 46.795-64.625 75.188s-47.326 51.951-59.469 64.094-4.2991 11.629 5.3438 17.344 35 22.312 35 22.312l10.969 6.1875c50.876-52.128 99.964-105.37 145.47-160.88-2.4743-1.7634-4.6847-3.2163-6.4376-4.0625-5.1785-2.5-18.192-10.179-37.656-22.5-9.1239-5.7757-13.634-8.2588-16.938-8.0312z" fill="url(#x)" filter="url(#am)" opacity=".5"/>
  <path d="m1006.5 78.219c-2.433 0.24554-3.7277 2.8482-7.3438 7.3125-7.2321 8.9286-23.201 29.893-33.469 42.125s-27.42 30.201-39.562 43.594-10.692 13.634-6.4062 16.312c16.995 9.7361 32.758 17.748 49.719 27.438l1.1562 0.875c30.835-34.319 61.118-69.609 91.156-106l0.2188-1.0625c-10.934-6.4988-28.382-16.199-41.188-23.812-8.2589-4.9107-11.848-7.0268-14.281-6.7812z" fill="url(#w)" filter="url(#au)" opacity=".5"/>
  <path d="m1098.2 132.75c-1.3759 0.13236-2.2344 1.1406-3.4063 2.7812-3.125 4.375-4.2857 4.7188-11.875 14.094s-17.478 23.317-28.906 37.781-34.112 39.897-40.094 47.219-5.7231 8.8438 2.3126 13.844c16.873 9.9148 34.157 18.852 50.906 28.75l0.0312 0.03125c30.428-36.126 59.711-73.563 87.625-112.53-13.481-8.3047-30.269-18.004-41.312-24.562-9.2077-5.4688-12.988-7.6268-15.281-7.4062z" fill="url(#v)" filter="url(#as)" opacity=".5"/>
  <path d="m1189.4 189.03c-1.5931 0.06093-2.8114 0.77455-3.8437 2.2812-3.3035 4.8214-2.0581 2.8839-6.3438 9.3125s-24.732 34.464-37.5 51.25-31.509 41.161-35.438 45.625-0.6117 6.8482 5.9063 10.688c16.902 9.4038 34.485 18.081 50.625 27.5 0.6433 0.44643 1.479 1.1176 2.4374 1.875 30.382-37.332 59.132-75.708 85.656-115.47-13.094-7.7681-33.104-18.695-43.719-24.875-8.9621-5.2176-14.276-8.3215-17.781-8.1875z" fill="url(#u)" filter="url(#ar)" opacity=".5"/>
  <path d="m918.19 27.25c-2.274 0.11002-3.4453 1.8906-5.9062 4.625-5.625 6.25-17.652 20.165-33.812 37.219s-34.223 37.496-45.562 48.031-9.8169 12.054-3.6562 15.625 30.897 16.076 31.344 16.344c0-0.17857 5.7143 2.6652 13.125 6.5938 3.071 1.628 5.3774 3.2571 7.9062 5.2188 30.674-31.216 62.091-64.328 94.625-100.03l0.0625-2.3125c-11.626-6.6134-26.402-14.909-38.562-21.969-11.853-6.8806-16.639-9.4852-19.562-9.3438z" fill="url(#t)" filter="url(#av)" opacity=".5"/>
  <g transform="translate(1750.2)">
   <path transform="matrix(.65082,-.68009,.92455,.5704,0,0)" d="m-765.06-506.22c-2.6589 1e-5 -4.5011 0.30406-5.5265 0.91214s-1.5381 1.6454-1.5381 3.112c-1e-5 1.1685 0.38154 2.0985 1.1446 2.7901 0.77501 0.67964 1.8243 1.0195 3.1478 1.0195 1.8243 0 3.2849-0.64387 4.3819-1.9316 1.1089-1.2996 1.6633-3.0226 1.6633-5.1688v-0.73329h-3.273m6.5639-1.3593v11.429h-3.2909v-3.0405c-0.7512 1.2162-1.6872 2.1164-2.808 2.7007-1.1208 0.57233-2.492 0.85849-4.1136 0.85849-2.0508 0-3.6844-0.57232-4.9005-1.717-1.2043-1.1566-1.8064-2.7007-1.8064-4.6323 0-2.2535 0.75118-3.9526 2.2535-5.0973 1.5143-1.1446 3.7678-1.717 6.7606-1.717h4.6144v-0.32194c-2e-5 -1.5143-0.5008-2.6828-1.5024-3.5055-0.98966-0.83463-2.3847-1.252-4.1851-1.252-1.1447 1e-5 -2.2595 0.13713-3.3445 0.41136s-2.1283 0.68561-3.1299 1.2341v-3.0405c1.2043-0.46499 2.3728-0.81077 3.5055-1.0373 1.1327-0.23845 2.2356-0.35768 3.3088-0.3577 2.8974 2e-5 5.0615 0.7512 6.4923 2.2535s2.1462 3.7798 2.1462 6.8321m21.176 1.4308c-2e-5 -2.4204-0.5008-4.3163-1.5024-5.6875-0.98966-1.3831-2.3549-2.0747-4.0957-2.0747s-3.112 0.69157-4.1136 2.0747c-0.98965 1.3712-1.4845 3.267-1.4845 5.6875s0.49482 4.3223 1.4845 5.7054c1.0016 1.3712 2.3728 2.0568 4.1136 2.0568s3.106-0.6856 4.0957-2.0568c1.0016-1.3831 1.5023-3.2849 1.5024-5.7054m-11.196-6.9931c0.69156-1.1923 1.562-2.0747 2.6112-2.647 1.0612-0.58423 2.3251-0.87635 3.7917-0.87637 2.4324 2e-5 4.4057 0.96582 5.92 2.8974 1.5262 1.9316 2.2893 4.4713 2.2893 7.6191s-0.76312 5.6875-2.2893 7.6191c-1.5143 1.9316-3.4876 2.8974-5.92 2.8974-1.4666 0-2.7305-0.28616-3.7917-0.85849-1.0493-0.58424-1.9197-1.4725-2.6112-2.6649v3.0047h-3.3088v-27.829h3.3088v10.838m34.483-2.2714v3.0762c-0.93005-0.51269-1.866-0.89424-2.808-1.1446-0.93004-0.2623-1.872-0.39346-2.8258-0.39347-2.1343 1e-5 -3.7917 0.67965-4.9721 2.0389-1.1804 1.3474-1.7706 3.2432-1.7706 5.6875s0.5902 4.3461 1.7706 5.7054c1.1804 1.3474 2.8378 2.021 4.9721 2.021 0.95386 0 1.8958-0.1252 2.8258-0.37559 0.94194-0.26232 1.8779-0.64983 2.808-1.1625v3.0405c-0.91813 0.42924-1.872 0.75118-2.8616 0.9658-0.97774 0.21462-2.021 0.32193-3.1299 0.32193-3.0166 0-5.4132-0.94791-7.1898-2.8437s-2.6649-4.4534-2.6649-7.6727c0-3.267 0.89426-5.8365 2.6828-7.7085 1.8004-1.872 4.2626-2.808 7.3866-2.808 1.0135 2e-5 2.0031 0.10733 2.9689 0.32193 0.96579 0.20272 1.9018 0.51273 2.808 0.93003"/>
   <path transform="matrix(.58764 -.65627 1.0017 .58301 0 0)" d="m-619.86-502.66v-10.324h3.1347v26.508h-3.1347v-2.8621c-0.65875 1.1358-1.4935 1.9819-2.5043 2.5384-0.99948 0.54516-2.2034 0.81774-3.6117 0.81774-2.3056 0-4.1852-0.91996-5.639-2.7599-1.4424-1.8399-2.1636-4.259-2.1636-7.2574s0.7212-5.4175 2.1636-7.2574c1.4538-1.8399 3.3334-2.7598 5.639-2.7599 1.4083 2e-5 2.6122 0.27828 3.6117 0.83478 1.0108 0.54518 1.8456 1.3856 2.5043 2.5214m-10.682 6.6612c-1e-5 2.3056 0.47133 4.1171 1.414 5.4346 0.95402 1.3061 2.2601 1.9592 3.9183 1.9592s2.9643-0.65305 3.9183-1.9592c0.95401-1.3175 1.431-3.129 1.431-5.4346s-0.47703-4.1114-1.431-5.4175c-0.95404-1.3174-2.2602-1.9762-3.9183-1.9762s-2.9643 0.65875-3.9183 1.9762c-0.94268 1.3061-1.414 3.112-1.414 5.4175m36.594-0.8007v1.5333h-14.413c0.13628 2.1579 0.78366 3.8048 1.9421 4.9405 1.1698 1.1244 2.7939 1.6866 4.8724 1.6866 1.2039 0 2.368-0.14765 3.4924-0.44294 1.1357-0.29529 2.2601-0.73824 3.3732-1.3288v2.9643c-1.1244 0.47702-2.2772 0.84046-3.4584 1.0903s-2.3794 0.3748-3.5946 0.3748c-3.0438 0-5.4573-0.88588-7.2404-2.6576-1.7718-1.7718-2.6576-4.1682-2.6576-7.1893 0-3.1233 0.84045-5.5992 2.5214-7.4278 1.6923-1.8399 3.9694-2.7598 6.8315-2.7599 2.5668 2e-5 4.5941 0.82912 6.0819 2.4873 1.4992 1.6468 2.2488 3.89 2.2488 6.7293m-3.1347-0.91996c-0.02273-1.715-0.50542-3.0835-1.4481-4.1057-0.93133-1.0222-2.1693-1.5332-3.7139-1.5333-1.7491 1e-5 -3.1517 0.49406-4.208 1.4822-1.0449 0.98811-1.6468 2.3794-1.8058 4.1739l11.176-0.01704m17.939-15.264v2.6065h-2.9984c-1.1244 3e-5 -1.9081 0.22718-2.351 0.68145-0.43159 0.45432-0.64738 1.2721-0.64737 2.4532v1.6866h5.162v2.4362h-5.162v16.644h-3.1517v-16.644h-2.9984v-2.4362h2.9984v-1.3288c-1e-5 -2.1238 0.49404-3.6684 1.4822-4.6338 0.98809-0.97672 2.5554-1.4651 4.702-1.4651h2.9643"/>
   <path transform="matrix(.65082,-.68009,.92455,.5704,0,0)" d="m-803.7-500.62h16.318v3.9348h-21.942v-3.9348c1.7745-1.8362 4.1894-4.2974 7.2447-7.3836 3.0707-3.1016 4.9995-5.0998 5.7865-5.9948 1.4968-1.6819 2.5383-3.1015 3.1247-4.2589 0.60177-1.1727 0.90267-2.3223 0.90269-3.4488-2e-5 -1.8362-0.6481-3.333-1.9443-4.4903-1.2808-1.1573-2.955-1.7359-5.0227-1.736-1.4659 4e-5 -3.0167 0.25464-4.6523 0.76382-1.6202 0.50924-3.3562 1.2808-5.2078 2.3146v-4.7218c1.8825-0.75607 3.6416-1.327 5.2773-1.7128s3.1324-0.57861 4.4903-0.57865c3.5799 4e-5 6.4346 0.89501 8.564 2.6849s3.1941 4.1817 3.1941 7.1752c-3e-5 1.4196-0.27006 2.7698-0.81011 4.0505-0.52466 1.2653-1.4891 2.7621-2.8932 4.4903-0.38579 0.44751-1.6125 1.7437-3.6802 3.8885-2.0677 2.1294-4.9841 5.1153-8.7492 8.9575"/>
   <path transform="matrix(.58764 -.65627 1.0017 .58301 0 0)" d="m-538.48-501.22c2.058 0.44 3.6618 1.3554 4.8114 2.7463 1.1638 1.3909 1.7457 3.1083 1.7457 5.152-3e-5 3.1366-1.0787 5.5636-3.236 7.281s-5.223 2.576-9.197 2.576c-1.3341 0-2.7108-0.13484-4.1301-0.4045-1.4051-0.25547-2.8599-0.64578-4.3643-1.1709v-4.1514c1.1922 0.69546 2.4979 1.2206 3.9172 1.5754s2.9024 0.53224 4.4495 0.53224c2.6966 0 4.7475-0.53223 6.1526-1.5967 1.4193-1.0645 2.1289-2.6115 2.1289-4.6411-2e-5 -1.8734-0.65999-3.3353-1.9799-4.3856-1.3058-1.0645-3.1296-1.5967-5.4714-1.5967h-3.7044v-3.534h3.8747c2.1147 2e-5 3.7327-0.41867 4.854-1.2561 1.1212-0.85156 1.6818-2.0721 1.6819-3.6618-2e-5 -1.6322-0.58193-2.8811-1.7457-3.7469-1.1496-0.87993-2.8031-1.3199-4.9604-1.3199-1.178 3e-5 -2.4412 0.12777-3.7895 0.38321s-2.8315 0.6529-4.4495 1.1922v-3.8321c1.6322-0.45414 3.1579-0.79477 4.5772-1.0219 1.4335-0.22705 2.7818-0.3406 4.045-0.34063 3.2644 3e-5 5.8475 0.74516 7.7493 2.2354 1.9018 1.4761 2.8528 3.4773 2.8528 6.0036-3e-5 1.7599-0.50387 3.2502-1.5116 4.4708-1.0077 1.2064-2.4412 2.0438-4.3004 2.5121"/>
   <path transform="matrix(.65082,-.68009,.92455,.5704,0,0)" d="m-1031.7-515.13h8.2228v-28.381l-8.9455 1.7941v-4.5848l8.8956-1.7941h5.0334v32.966h8.2228v4.236h-21.429v-4.236"/>
   <path transform="matrix(.66805,-.68059,.92317,.5564,0,0)" d="m-958.49-405.64c-2e-5 -2.6925-0.55872-4.7793-1.6761-6.2602-1.104-1.4809-2.6589-2.2213-4.6648-2.2214-1.9925 2e-5 -3.5474 0.74047-4.6648 2.2214-1.104 1.4809-1.6559 3.5676-1.6559 6.2602-1e-5 2.6791 0.55197 4.7591 1.6559 6.24 1.1174 1.4809 2.6724 2.2214 4.6648 2.2214 2.0059 0 3.5609-0.74045 4.6648-2.2214 1.1174-1.4809 1.6761-3.5609 1.6761-6.24m3.7157 8.7643c-3e-5 3.8504-0.85491 6.7112-2.5647 8.5825-1.7098 1.8848-4.3283 2.8272-7.8555 2.8272-1.3059-1e-5 -2.5377-0.10098-3.6955-0.30291-1.1578-0.18849-2.2819-0.48467-3.3724-0.88854v-3.6148c1.0905 0.59235 2.1675 1.0299 3.2311 1.3126s2.1473 0.42408 3.2512 0.42408c2.4368 0 4.261-0.63948 5.4726-1.9184 1.2116-1.2655 1.8174-3.184 1.8175-5.7553v-1.8377c-0.76739 1.3328-1.7502 2.3291-2.9483 2.9887s-2.632 0.98951-4.3014 0.98951c-2.7733 0-5.0082-1.0568-6.7045-3.1705s-2.5445-4.9139-2.5445-8.4008c0-3.5003 0.84815-6.3073 2.5445-8.421s3.9311-3.1705 6.7045-3.1705c1.6694 3e-5 3.1032 0.32986 4.3014 0.98952s2.181 1.6559 2.9483 2.9887v-3.433h3.7157v19.81m26.454-10.844v13.651h-3.7157v-13.53c-2e-5 -2.1406-0.41737-3.7426-1.252-4.8062s-2.0867-1.5953-3.7561-1.5953c-2.006 2e-5 -3.5878 0.6395-4.7456 1.9184s-1.7367 3.0224-1.7367 5.2303v12.783h-3.7359v-31.422h3.7359v12.318c0.88853-1.3597 1.9319-2.3762 3.1301-3.0493 1.2116-0.67311 2.605-1.0097 4.1802-1.0097 2.5983 3e-5 4.5639 0.80779 5.8967 2.4233 1.3328 1.6021 1.9992 3.9648 1.9992 7.0882m7.4516-8.9662h3.7157v22.617h-3.7157v-22.617m0-8.8046h3.7157v4.7052h-3.7157v-4.7052"/>
   <path transform="matrix(.66805,-.68059,.92317,.5564,0,0)" d="m-1008.1-428.49-14.134 22.088h14.134v-22.088m-1.4688-4.8776h7.0392v26.965h5.903v4.6559h-5.903v9.7551h-5.5704v-9.7551h-18.679v-5.4041l17.21-26.217"/>
   <path transform="matrix(.66805,-.68059,.92317,.5564,0,0)" d="m-991.52-287.94v11.995h-3.7359v-31.22h3.7359v3.433c0.78083-1.3462 1.7636-2.3425 2.9484-2.9887 1.1982-0.65965 2.6252-0.98949 4.2812-0.98951 2.7464 2e-5 4.9745 1.0905 6.6843 3.2714 1.7232 2.181 2.5848 5.0486 2.5848 8.6027s-0.86164 6.4217-2.5848 8.6027c-1.7098 2.181-3.9379 3.2715-6.6843 3.2715-1.6559 0-3.083-0.32311-4.2812-0.96932-1.1847-0.65968-2.1675-1.6626-2.9484-3.0089m12.642-7.8959c-2e-5 -2.7329-0.56546-4.8735-1.6963-6.4217-1.1174-1.5617-2.6589-2.3425-4.6245-2.3425s-3.5138 0.78086-4.6446 2.3425c-1.1174 1.5482-1.6761 3.6888-1.6761 6.4217s0.5587 4.8802 1.6761 6.4419c1.1309 1.5482 2.6791 2.3223 4.6446 2.3223s3.507-0.77411 4.6245-2.3223c1.1308-1.5617 1.6963-3.709 1.6963-6.4419m12.238 0c-1e-5 2.733 0.55869 4.8802 1.6761 6.4419 1.1309 1.5482 2.6791 2.3223 4.6446 2.3223s3.5138-0.77411 4.6447-2.3223c1.1308-1.5617 1.6963-3.709 1.6963-6.4419s-0.56546-4.8735-1.6963-6.4217c-1.1309-1.5617-2.6791-2.3425-4.6447-2.3425s-3.5138 0.78086-4.6446 2.3425c-1.1174 1.5482-1.6761 3.6888-1.6761 6.4217m12.662 7.8959c-0.78086 1.3463-1.7704 2.3492-2.9685 3.0089-1.1847 0.64621-2.6118 0.96932-4.2812 0.96932-2.733 0-4.961-1.0905-6.6843-3.2715-1.7098-2.181-2.5647-5.0485-2.5646-8.6027s0.85488-6.4217 2.5646-8.6027c1.7232-2.181 3.9513-3.2714 6.6843-3.2714 1.6694 2e-5 3.0964 0.32986 4.2812 0.98951 1.1982 0.64623 2.1877 1.6425 2.9685 2.9887v-3.433h3.7157v31.22h-3.7157v-11.995m24.475-15.751c-0.41736-0.24231-0.8751-0.41733-1.3732-0.52505-0.48468-0.12114-1.0232-0.18172-1.6155-0.18174-2.1002 2e-5 -3.7157 0.68662-4.8466 2.0598-1.1174 1.3598-1.6761 3.3186-1.6761 5.8765v11.915h-3.7359v-22.617h3.7359v3.5138c0.78084-1.3732 1.7973-2.3896 3.0493-3.0493 1.252-0.67311 2.7733-1.0097 4.5639-1.0097 0.25578 2e-5 0.53849 0.02021 0.84815 0.06058 0.30963 0.02695 0.65293 0.07407 1.0299 0.14136l0.0202 3.8167m18.356-2.807v3.5138c-1.0501-0.5385-2.1406-0.94238-3.2714-1.2116s-2.3022-0.40387-3.5138-0.40389c-1.8444 2e-5 -3.2311 0.28274-4.16 0.84816-0.91547 0.56545-1.3732 1.4136-1.3732 2.5445-1e-5 0.86163 0.32983 1.5415 0.98951 2.0396 0.65967 0.48467 1.9858 0.94914 3.9782 1.3934l1.2722 0.28272c2.6387 0.56544 4.51 1.3665 5.614 2.4031 1.1174 1.0232 1.6761 2.457 1.6761 4.3014-2e-5 2.1002-0.83471 3.7628-2.5041 4.988-1.6559 1.2251-3.9379 1.8377-6.8458 1.8377-1.2117 0-2.4772-0.12117-3.7965-0.3635-1.3059-0.22887-2.6858-0.5789-4.1398-1.0501v-3.8369c1.3732 0.71353 2.7262 1.252 4.059 1.6155 1.3328 0.35003 2.6522 0.52505 3.958 0.52505 1.7502 0 3.0964-0.29618 4.0388-0.88855 0.94238-0.60582 1.4136-1.454 1.4136-2.5445-1e-5 -1.0097-0.34331-1.7838-1.0299-2.3223-0.67315-0.5385-2.1608-1.0568-4.4629-1.555l-1.2924-0.30291c-2.3021-0.48465-3.9648-1.2251-4.988-2.2214-1.0232-1.0097-1.5348-2.3896-1.5348-4.1398 0-2.1271 0.75391-3.7696 2.2617-4.9274s3.6484-1.7367 6.4217-1.7367c1.3732 2e-5 2.6656 0.10099 3.8773 0.30291s2.329 0.50487 3.3522 0.90873"/>
   <path transform="matrix(.66805,-.68059,.92317,.5564,0,0)" d="m-1035.3-321.18h26.605v2.3834l-15.021 38.993h-5.8475l14.134-36.665h-19.871v-4.7113"/>
   <path transform="matrix(.65082,-.68009,.92455,.5704,0,0)" d="m-809.39-424.13h19.56v4.1931h-14.997v9.0275c0.72351-0.24663 1.447-0.42751 2.1706-0.54264 0.72351-0.13153 1.447-0.1973 2.1706-0.19733 4.1109 3e-5 7.3667 1.1264 9.7675 3.3792s3.6011 5.3031 3.6012 9.1509c-3e-5 3.9629-1.2333 7.0461-3.6998 9.2495-2.4666 2.187-5.9444 3.2805-10.433 3.2805-1.5457 0-3.1243-0.13155-4.7358-0.39465-1.595-0.26309-3.2476-0.65774-4.9578-1.1839v-5.0071c1.4799 0.80574 3.0092 1.4059 4.5878 1.8006s3.2476 0.59197 5.0071 0.59196c2.8447 1e-5 5.0975-0.74817 6.7583-2.2446s2.4912-3.5271 2.4912-6.0924-0.83042-4.596-2.4912-6.0924-3.9136-2.2445-6.7583-2.2446c-1.3319 2e-5 -2.6639 0.14801-3.9958 0.44398-1.3155 0.296-2.6639 0.75642-4.0451 1.3813v-18.499"/>
   <path transform="matrix(.6035,-.71016,.98411,.49896,0,0)" d="m-714.06-452.62h3.3256v20.604c-1e-5 2.5785-0.49403 4.4462-1.4821 5.6029-0.976 1.1567-2.5544 1.7351-4.7354 1.7351h-1.2652v-2.8195h0.88562c1.2652-1e-5 2.1267-0.29522 2.5846-0.88563 0.45787-0.57837 0.6868-1.7893 0.68681-3.6329v-20.604m0-7.8802h3.3256v4.2112h-3.3256v-4.2112m10.139 0h3.3437v16.61l9.9226-8.7297h4.2474l-10.736 9.4708 11.188 10.772h-4.3378l-10.284-9.8865v9.8865h-3.3437v-28.123m21.598 0h3.3256v28.123h-3.3256v-28.123"/>
   <path transform="matrix(.6035,-.71016,.98411,.49896,0,0)" d="m-733.05-351.9v5.7475h6.85v2.5846h-6.85v10.989c-1e-5 1.6508 0.22291 2.7111 0.66874 3.181 0.45786 0.46993 1.3796 0.70489 2.7653 0.70489h3.416v2.7834h-3.416c-2.5665 0-4.3378-0.47595-5.3137-1.4278-0.976-0.96395-1.464-2.7111-1.464-5.2414v-10.989h-2.44v-2.5846h2.44v-5.7475h3.3437m10.899 18.002v-12.254h3.3256v12.128c-1e-5 1.9158 0.37352 3.3557 1.1206 4.3197 0.74704 0.9519 1.8676 1.4278 3.3618 1.4278 1.7953 0 3.2111-0.57234 4.2474-1.717 1.0483-1.1447 1.5724-2.7051 1.5724-4.6812v-11.477h3.3256v20.243h-3.3256v-3.1087c-0.80732 1.229-1.7472 2.1448-2.8195 2.7472-1.0604 0.59042-2.2954 0.88562-3.7052 0.88562-2.3255 0-4.0908-0.72295-5.2957-2.1689s-1.8074-3.5606-1.8074-6.344m21.454-12.254h3.5244l6.3259 16.99 6.3259-16.99h3.5244l-7.5911 20.243h-4.5185l-7.5911-20.243"/>
   <path transform="matrix(.65082,-.68009,.92455,.5704,0,0)" d="m-800.87-301.68c-2.3679 2e-5 -4.2342 0.63309-5.599 1.8992-1.3484 1.2662-2.0226 3.0092-2.0226 5.2291s0.67418 3.9629 2.0226 5.2291c1.3648 1.2662 3.2312 1.8992 5.599 1.8992s4.2342-0.63307 5.599-1.8992c1.3648-1.2826 2.0472-3.0256 2.0472-5.2291-2e-5 -2.2199-0.68243-3.9629-2.0472-5.2291-1.3484-1.2661-3.2147-1.8992-5.599-1.8992m-4.9824-2.1212c-2.1377-0.52618-3.8067-1.521-5.0071-2.9845-1.184-1.4634-1.7759-3.2476-1.7759-5.3524-1e-5 -2.9434 1.0442-5.2701 3.1325-6.9803 2.1048-1.7101 4.9824-2.5652 8.6329-2.5652 3.6669 4e-5 6.5445 0.8551 8.6329 2.5652s3.1325 4.0369 3.1325 6.9803c-3e-5 2.1048-0.60022 3.8889-1.8006 5.3524-1.184 1.4635-2.8366 2.4583-4.9578 2.9845 2.4007 0.5591 4.2671 1.6526 5.599 3.2805 1.3483 1.6279 2.0225 3.6176 2.0226 5.969-3e-5 3.5683-1.0935 6.3061-3.2805 8.2136-2.1706 1.9075-5.2866 2.8612-9.3482 2.8612s-7.1859-0.95373-9.3728-2.8612c-2.1706-1.9074-3.2558-4.6453-3.2558-8.2136 0-2.3514 0.67418-4.3411 2.0226-5.969s3.2229-2.7214 5.6237-3.2805m-1.8252-7.8683c-1e-5 1.9075 0.59196 3.3956 1.7759 4.4644 1.2004 1.0689 2.8776 1.6033 5.0317 1.6032 2.1376 2e-5 3.8067-0.53439 5.0071-1.6032 1.2168-1.0688 1.8252-2.557 1.8252-4.4644s-0.60843-3.3956-1.8252-4.4644c-1.2004-1.0688-2.8694-1.6032-5.0071-1.6032-2.1541 3e-5 -3.8314 0.53445-5.0317 1.6032-1.184 1.0689-1.7759 2.557-1.7759 4.4644"/>
   <path transform="matrix(.65082,-.68009,.92455,.5704,0,0)" d="m-806.74-205.85c-2.5652 3e-5 -4.4973 1.2662-5.7964 3.7985-1.2826 2.5159-1.9239 6.3061-1.9239 11.371-1e-5 5.0482 0.64129 8.8384 1.9239 11.371 1.299 2.5159 3.2312 3.7738 5.7964 3.7738 2.5816 0 4.5138-1.2579 5.7964-3.7738 1.299-2.5323 1.9485-6.3226 1.9486-11.371-2e-5 -5.0646-0.64954-8.8548-1.9486-11.371-1.2826-2.5323-3.2147-3.7984-5.7964-3.7985m0-3.9465c4.1273 3e-5 7.2763 1.6362 9.4468 4.9084 2.187 3.2559 3.2805 7.9916 3.2805 14.207-3e-5 6.1992-1.0935 10.935-3.2805 14.207-2.1706 3.2558-5.3195 4.8837-9.4468 4.8837s-7.2845-1.6279-9.4715-4.8837c-2.1706-3.2723-3.2558-8.008-3.2558-14.207 0-6.2156 1.0853-10.951 3.2558-14.207 2.187-3.2722 5.3442-4.9084 9.4715-4.9084"/>
   <path transform="matrix(.6367,-.71826,.96,.48762,0,0)" d="m-915.81-240.34v9.2325h9.1972v4.1581h-9.1972v9.2325h-4.1934v-9.2325h-9.1972v-4.1581h9.1972v-9.2325h4.1934"/>
   <path transform="matrix(.65589,-.69231,.93288,.53996,0,0)" d="m-987.03-211.77-13.567 7.1124 13.567 7.1535-3.1245 5.7968-13.69-7.5646v14.143h-6.9891v-14.143l-13.731 7.5646-3.1246-5.7968 13.732-7.1535-13.732-7.1124 3.1246-5.7968 13.731 7.4824v-14.143h6.9891v14.143l13.69-7.4824 3.1245 5.7968"/>
   <path transform="matrix(.58764 -.65627 1.0017 .58301 0 0)" d="m-630.3-408.81c0.78365-1.4083 1.7206-2.4475 2.811-3.1176s2.3737-1.0051 3.8502-1.0051c1.9875 2e-5 3.5208 0.6985 4.5998 2.0954 1.0789 1.3856 1.6184 3.3618 1.6184 5.9286v11.516h-3.1517v-11.414c-3e-5 -1.8285-0.32371-3.1858-0.97106-4.0716s-1.6355-1.3288-2.9643-1.3288c-1.6241 2e-5 -2.9075 0.5395-3.8502 1.6184s-1.414 2.5498-1.414 4.4124v10.784h-3.1517v-11.414c-1e-5 -1.8399-0.3237-3.1971-0.97106-4.0716-0.64739-0.88587-1.6468-1.3288-2.9984-1.3288-1.6014 2e-5 -2.8734 0.54518-3.8161 1.6355-0.94268 1.079-1.414 2.5441-1.414 4.3953v10.784h-3.1517v-19.081h3.1517v2.9643c0.71552-1.1698 1.573-2.033 2.5725-2.5895s2.1863-0.83475 3.5606-0.83477c1.3856 2e-5 2.5611 0.3521 3.5265 1.0562 0.97673 0.70418 1.6979 1.7264 2.1636 3.0665m35.009 3.9013v11.516h-3.1347v-11.414c-2e-5 -1.8058-0.3521-3.1574-1.0562-4.0546s-1.7604-1.3458-3.1687-1.3459c-1.6923 2e-5 -3.0268 0.5395-4.0035 1.6184s-1.4651 2.5498-1.4651 4.4124v10.784h-3.1517v-19.081h3.1517v2.9643c0.74959-1.1471 1.6298-2.0046 2.6406-2.5725 1.0222-0.56786 2.1977-0.85179 3.5265-0.85181 2.192 2e-5 3.8502 0.68146 4.9746 2.0443 1.1244 1.3516 1.6866 3.3448 1.6866 5.9797m13.68-5.3664c-1.6809 1e-5 -3.0097 0.65875-3.9865 1.9762-0.97675 1.3061-1.4651 3.1006-1.4651 5.3834s0.48268 4.083 1.4481 5.4005c0.97673 1.3061 2.3112 1.9592 4.0035 1.9592 1.6695 0 2.9927-0.65873 3.9694-1.9762s1.4651-3.1119 1.4651-5.3834c-1e-5 -2.2601-0.48838-4.0489-1.4651-5.3664-0.97676-1.3288-2.2999-1.9932-3.9694-1.9932m0-2.6576c2.7258 2e-5 4.8667 0.8859 6.4226 2.6576s2.334 4.225 2.334 7.3596c-2e-5 3.1233-0.77801 5.5765-2.334 7.3596-1.556 1.7718-3.6969 2.6576-6.4226 2.6576-2.7372 0-4.8837-0.88588-6.4397-2.6576-1.5446-1.7831-2.3169-4.2363-2.3169-7.3596 0-3.1346 0.77231-5.5879 2.3169-7.3596 1.556-1.7718 3.7025-2.6576 6.4397-2.6576"/>
   <path transform="matrix(.58764 -.65627 1.0017 .58301 0 0)" d="m-543.06-409.62c-1.9302 2e-5 -3.4631 0.65999-4.5985 1.9799-1.1212 1.32-1.6819 3.1296-1.6819 5.4288-1e-5 2.2851 0.56061 4.0947 1.6819 5.4288 1.1354 1.32 2.6682 1.9799 4.5985 1.9799s3.456-0.65996 4.5772-1.9799c1.1354-1.3341 1.7031-3.1437 1.7032-5.4288-2e-5 -2.2992-0.56773-4.1088-1.7032-5.4288-1.1212-1.3199-2.647-1.9799-4.5772-1.9799m8.537-13.476v3.9172c-1.0787-0.51092-2.1715-0.90122-3.2786-1.1709-1.0929-0.26963-2.1786-0.40447-3.2573-0.4045-2.8386 3e-5 -5.0101 0.95805-6.5145 2.8741-1.4903 1.9161-2.3418 4.8114-2.5547 8.6861 0.83738-1.2348 1.8876-2.1786 3.1508-2.8315 1.2632-0.66704 2.6541-1.0006 4.1727-1.0006 3.1934 2e-5 5.7126 0.97224 7.5577 2.9166 1.8592 1.9303 2.7889 4.563 2.7889 7.8984-2e-5 3.2644-0.96514 5.883-2.8954 7.8558s-4.4992 2.9592-7.7068 2.9592c-3.676 0-6.4862-1.4051-8.4306-4.2153-1.9444-2.8244-2.9166-6.9119-2.9166-12.263 0-5.0243 1.1922-9.0267 3.5766-12.007 2.3844-2.9947 5.5849-4.492 9.6015-4.4921 1.0786 4e-5 2.1644 0.10648 3.2573 0.31934 1.107 0.21293 2.2566 0.53227 3.4489 0.95802"/>
   <path transform="matrix(.58354 -.68204 1.0189 .52279 0 0)" d="m-619.07-337.45h3.2297l4.0371 15.341 4.0195-15.341h3.8089l4.0371 15.341 4.0195-15.341h3.2297l-5.1429 19.659h-3.8089l-4.2302-16.113-4.2477 16.113h-3.8089l-5.1429-19.659m47.637 0-7.1088 9.5661 7.4774 10.093h-3.8089l-5.7221-7.7231-5.7221 7.7231h-3.8089l7.6353-10.286-6.9859-9.373h3.8089l5.2131 7.0034 5.2131-7.0034h3.8089m13.112 21.484c-0.91274 2.3403-1.8021 3.8674-2.668 4.5812s-2.0244 1.0707-3.4754 1.0707h-2.5802v-2.7031h1.8957c0.88932 0 1.5797-0.21063 2.0712-0.63189s1.0356-1.4159 1.6324-2.9839l0.57923-1.4744-7.9513-19.343h3.4227l6.1434 15.376 6.1434-15.376h3.4227l-8.6358 21.484m11.69-21.484h15.341v2.9488l-12.146 14.13h12.146v2.5802h-15.78v-2.9488l12.146-14.13h-11.708v-2.5802"/>
   <path transform="matrix(.58764 -.65627 1.0017 .58301 0 0)" d="m-555.94-300.63v-3.9172c1.0786 0.51095 2.1715 0.90126 3.2786 1.1709s2.1928 0.4045 3.2573 0.4045c2.8386 0 5.003-0.95092 6.4932-2.8528 1.5044-1.916 2.3631-4.8185 2.576-8.7074-0.82321 1.2206-1.8664 2.1573-3.1295 2.8102s-2.6612 0.97932-4.194 0.97931c-3.1792 1e-5 -5.6985-0.95801-7.5577-2.8741-1.8451-1.9302-2.7676-4.563-2.7676-7.8984 0-3.2643 0.96511-5.8829 2.8954-7.8558s4.4991-2.9592 7.7068-2.9592c3.6759 3e-5 6.479 1.4122 8.4093 4.2366 1.9444 2.8102 2.9166 6.8978 2.9166 12.263-3e-5 5.0101-1.1922 9.0125-3.5766 12.007-2.3702 2.9805-5.5636 4.4708-9.5802 4.4708-1.0787 0-2.1715-0.10645-3.2786-0.31934s-2.2567-0.53224-3.4489-0.95802m8.5583-13.476c1.9302 2e-5 3.456-0.65995 4.5772-1.9799 1.1354-1.3199 1.7031-3.1295 1.7032-5.4288-2e-5 -2.285-0.56774-4.0875-1.7032-5.4075-1.1212-1.3341-2.647-2.0012-4.5772-2.0012s-3.4631 0.66709-4.5985 2.0012c-1.1212 1.32-1.6819 3.1225-1.6819 5.4075-1e-5 2.2993 0.56061 4.1089 1.6819 5.4288 1.1354 1.32 2.6682 1.9799 4.5985 1.9799"/>
   <path transform="matrix(.55444 -.7205 1.1421 .31943 0 0)" d="m-446.72-265.17h-6.654l-1.9207 7.6372h6.6997l1.875-7.6372m-3.4299-13.011-2.3781 9.4894h6.6769l2.4009-9.4894h3.6586l-2.3552 9.4894h7.1342v3.5214h-8.026l-1.875 7.6372h7.2714v3.4985h-8.1632l-2.3781 9.4665h-3.6586l2.3552-9.4665h-6.6997l-2.3552 9.4665h-3.6814l2.3781-9.4665h-7.2028v-3.4985h8.0488l1.9207-7.6372h-7.3628v-3.5214h8.2546l2.3323-9.4894h3.7043"/>
   <path transform="matrix(.65082,-.68009,.92455,.5704,0,0)" d="m-765.06-506.22c-2.6589 1e-5 -4.5011 0.30406-5.5265 0.91214s-1.5381 1.6454-1.5381 3.112c-1e-5 1.1685 0.38154 2.0985 1.1446 2.7901 0.77501 0.67964 1.8243 1.0195 3.1478 1.0195 1.8243 0 3.2849-0.64387 4.3819-1.9316 1.1089-1.2996 1.6633-3.0226 1.6633-5.1688v-0.73329h-3.273m6.5639-1.3593v11.429h-3.2909v-3.0405c-0.7512 1.2162-1.6872 2.1164-2.808 2.7007-1.1208 0.57233-2.492 0.85849-4.1136 0.85849-2.0508 0-3.6844-0.57232-4.9005-1.717-1.2043-1.1566-1.8064-2.7007-1.8064-4.6323 0-2.2535 0.75118-3.9526 2.2535-5.0973 1.5143-1.1446 3.7678-1.717 6.7606-1.717h4.6144v-0.32194c-2e-5 -1.5143-0.5008-2.6828-1.5024-3.5055-0.98966-0.83463-2.3847-1.252-4.1851-1.252-1.1447 1e-5 -2.2595 0.13713-3.3445 0.41136s-2.1283 0.68561-3.1299 1.2341v-3.0405c1.2043-0.46499 2.3728-0.81077 3.5055-1.0373 1.1327-0.23845 2.2356-0.35768 3.3088-0.3577 2.8974 2e-5 5.0615 0.7512 6.4923 2.2535s2.1462 3.7798 2.1462 6.8321m21.176 1.4308c-2e-5 -2.4204-0.5008-4.3163-1.5024-5.6875-0.98966-1.3831-2.3549-2.0747-4.0957-2.0747s-3.112 0.69157-4.1136 2.0747c-0.98965 1.3712-1.4845 3.267-1.4845 5.6875s0.49482 4.3223 1.4845 5.7054c1.0016 1.3712 2.3728 2.0568 4.1136 2.0568s3.106-0.6856 4.0957-2.0568c1.0016-1.3831 1.5023-3.2849 1.5024-5.7054m-11.196-6.9931c0.69156-1.1923 1.562-2.0747 2.6112-2.647 1.0612-0.58423 2.3251-0.87635 3.7917-0.87637 2.4324 2e-5 4.4057 0.96582 5.92 2.8974 1.5262 1.9316 2.2893 4.4713 2.2893 7.6191s-0.76312 5.6875-2.2893 7.6191c-1.5143 1.9316-3.4876 2.8974-5.92 2.8974-1.4666 0-2.7305-0.28616-3.7917-0.85849-1.0493-0.58424-1.9197-1.4725-2.6112-2.6649v3.0047h-3.3088v-27.829h3.3088v10.838m34.483-2.2714v3.0762c-0.93005-0.51269-1.866-0.89424-2.808-1.1446-0.93004-0.2623-1.872-0.39346-2.8258-0.39347-2.1343 1e-5 -3.7917 0.67965-4.9721 2.0389-1.1804 1.3474-1.7706 3.2432-1.7706 5.6875s0.5902 4.3461 1.7706 5.7054c1.1804 1.3474 2.8378 2.021 4.9721 2.021 0.95386 0 1.8958-0.1252 2.8258-0.37559 0.94194-0.26232 1.8779-0.64983 2.808-1.1625v3.0405c-0.91813 0.42924-1.872 0.75118-2.8616 0.9658-0.97774 0.21462-2.021 0.32193-3.1299 0.32193-3.0166 0-5.4132-0.94791-7.1898-2.8437s-2.6649-4.4534-2.6649-7.6727c0-3.267 0.89426-5.8365 2.6828-7.7085 1.8004-1.872 4.2626-2.808 7.3866-2.808 1.0135 2e-5 2.0031 0.10733 2.9689 0.32193 0.96579 0.20272 1.9018 0.51273 2.808 0.93003"/>
   <path transform="matrix(.58764 -.65627 1.0017 .58301 0 0)" d="m-619.86-502.66v-10.324h3.1347v26.508h-3.1347v-2.8621c-0.65875 1.1358-1.4935 1.9819-2.5043 2.5384-0.99948 0.54516-2.2034 0.81774-3.6117 0.81774-2.3056 0-4.1852-0.91996-5.639-2.7599-1.4424-1.8399-2.1636-4.259-2.1636-7.2574s0.7212-5.4175 2.1636-7.2574c1.4538-1.8399 3.3334-2.7598 5.639-2.7599 1.4083 2e-5 2.6122 0.27828 3.6117 0.83478 1.0108 0.54518 1.8456 1.3856 2.5043 2.5214m-10.682 6.6612c-1e-5 2.3056 0.47133 4.1171 1.414 5.4346 0.95402 1.3061 2.2601 1.9592 3.9183 1.9592s2.9643-0.65305 3.9183-1.9592c0.95401-1.3175 1.431-3.129 1.431-5.4346s-0.47703-4.1114-1.431-5.4175c-0.95404-1.3174-2.2602-1.9762-3.9183-1.9762s-2.9643 0.65875-3.9183 1.9762c-0.94268 1.3061-1.414 3.112-1.414 5.4175m36.594-0.8007v1.5333h-14.413c0.13628 2.1579 0.78366 3.8048 1.9421 4.9405 1.1698 1.1244 2.7939 1.6866 4.8724 1.6866 1.2039 0 2.368-0.14765 3.4924-0.44294 1.1357-0.29529 2.2601-0.73824 3.3732-1.3288v2.9643c-1.1244 0.47702-2.2772 0.84046-3.4584 1.0903s-2.3794 0.3748-3.5946 0.3748c-3.0438 0-5.4573-0.88588-7.2404-2.6576-1.7718-1.7718-2.6576-4.1682-2.6576-7.1893 0-3.1233 0.84045-5.5992 2.5214-7.4278 1.6923-1.8399 3.9694-2.7598 6.8315-2.7599 2.5668 2e-5 4.5941 0.82912 6.0819 2.4873 1.4992 1.6468 2.2488 3.89 2.2488 6.7293m-3.1347-0.91996c-0.02273-1.715-0.50542-3.0835-1.4481-4.1057-0.93133-1.0222-2.1693-1.5332-3.7139-1.5333-1.7491 1e-5 -3.1517 0.49406-4.208 1.4822-1.0449 0.98811-1.6468 2.3794-1.8058 4.1739l11.176-0.01704m17.939-15.264v2.6065h-2.9984c-1.1244 3e-5 -1.9081 0.22718-2.351 0.68145-0.43159 0.45432-0.64738 1.2721-0.64737 2.4532v1.6866h5.162v2.4362h-5.162v16.644h-3.1517v-16.644h-2.9984v-2.4362h2.9984v-1.3288c-1e-5 -2.1238 0.49404-3.6684 1.4822-4.6338 0.98809-0.97672 2.5554-1.4651 4.702-1.4651h2.9643"/>
   <path transform="matrix(.65082,-.68009,.92455,.5704,0,0)" d="m-803.7-500.62h16.318v3.9348h-21.942v-3.9348c1.7745-1.8362 4.1894-4.2974 7.2447-7.3836 3.0707-3.1016 4.9995-5.0998 5.7865-5.9948 1.4968-1.6819 2.5383-3.1015 3.1247-4.2589 0.60177-1.1727 0.90267-2.3223 0.90269-3.4488-2e-5 -1.8362-0.6481-3.333-1.9443-4.4903-1.2808-1.1573-2.955-1.7359-5.0227-1.736-1.4659 4e-5 -3.0167 0.25464-4.6523 0.76382-1.6202 0.50924-3.3562 1.2808-5.2078 2.3146v-4.7218c1.8825-0.75607 3.6416-1.327 5.2773-1.7128s3.1324-0.57861 4.4903-0.57865c3.5799 4e-5 6.4346 0.89501 8.564 2.6849s3.1941 4.1817 3.1941 7.1752c-3e-5 1.4196-0.27006 2.7698-0.81011 4.0505-0.52466 1.2653-1.4891 2.7621-2.8932 4.4903-0.38579 0.44751-1.6125 1.7437-3.6802 3.8885-2.0677 2.1294-4.9841 5.1153-8.7492 8.9575"/>
   <path transform="matrix(.58764 -.65627 1.0017 .58301 0 0)" d="m-538.48-501.22c2.058 0.44 3.6618 1.3554 4.8114 2.7463 1.1638 1.3909 1.7457 3.1083 1.7457 5.152-3e-5 3.1366-1.0787 5.5636-3.236 7.281s-5.223 2.576-9.197 2.576c-1.3341 0-2.7108-0.13484-4.1301-0.4045-1.4051-0.25547-2.8599-0.64578-4.3643-1.1709v-4.1514c1.1922 0.69546 2.4979 1.2206 3.9172 1.5754s2.9024 0.53224 4.4495 0.53224c2.6966 0 4.7475-0.53223 6.1526-1.5967 1.4193-1.0645 2.1289-2.6115 2.1289-4.6411-2e-5 -1.8734-0.65999-3.3353-1.9799-4.3856-1.3058-1.0645-3.1296-1.5967-5.4714-1.5967h-3.7044v-3.534h3.8747c2.1147 2e-5 3.7327-0.41867 4.854-1.2561 1.1212-0.85156 1.6818-2.0721 1.6819-3.6618-2e-5 -1.6322-0.58193-2.8811-1.7457-3.7469-1.1496-0.87993-2.8031-1.3199-4.9604-1.3199-1.178 3e-5 -2.4412 0.12777-3.7895 0.38321s-2.8315 0.6529-4.4495 1.1922v-3.8321c1.6322-0.45414 3.1579-0.79477 4.5772-1.0219 1.4335-0.22705 2.7818-0.3406 4.045-0.34063 3.2644 3e-5 5.8475 0.74516 7.7493 2.2354 1.9018 1.4761 2.8528 3.4773 2.8528 6.0036-3e-5 1.7599-0.50387 3.2502-1.5116 4.4708-1.0077 1.2064-2.4412 2.0438-4.3004 2.5121"/>
   <path transform="matrix(.65082,-.68009,.92455,.5704,0,0)" d="m-1031.7-515.13h8.2228v-28.381l-8.9455 1.7941v-4.5848l8.8956-1.7941h5.0334v32.966h8.2228v4.236h-21.429v-4.236"/>
   <path transform="matrix(.66805,-.68059,.92317,.5564,0,0)" d="m-958.49-405.64c-2e-5 -2.6925-0.55872-4.7793-1.6761-6.2602-1.104-1.4809-2.6589-2.2213-4.6648-2.2214-1.9925 2e-5 -3.5474 0.74047-4.6648 2.2214-1.104 1.4809-1.6559 3.5676-1.6559 6.2602-1e-5 2.6791 0.55197 4.7591 1.6559 6.24 1.1174 1.4809 2.6724 2.2214 4.6648 2.2214 2.0059 0 3.5609-0.74045 4.6648-2.2214 1.1174-1.4809 1.6761-3.5609 1.6761-6.24m3.7157 8.7643c-3e-5 3.8504-0.85491 6.7112-2.5647 8.5825-1.7098 1.8848-4.3283 2.8272-7.8555 2.8272-1.3059-1e-5 -2.5377-0.10098-3.6955-0.30291-1.1578-0.18849-2.2819-0.48467-3.3724-0.88854v-3.6148c1.0905 0.59235 2.1675 1.0299 3.2311 1.3126s2.1473 0.42408 3.2512 0.42408c2.4368 0 4.261-0.63948 5.4726-1.9184 1.2116-1.2655 1.8174-3.184 1.8175-5.7553v-1.8377c-0.76739 1.3328-1.7502 2.3291-2.9483 2.9887s-2.632 0.98951-4.3014 0.98951c-2.7733 0-5.0082-1.0568-6.7045-3.1705s-2.5445-4.9139-2.5445-8.4008c0-3.5003 0.84815-6.3073 2.5445-8.421s3.9311-3.1705 6.7045-3.1705c1.6694 3e-5 3.1032 0.32986 4.3014 0.98952s2.181 1.6559 2.9483 2.9887v-3.433h3.7157v19.81m26.454-10.844v13.651h-3.7157v-13.53c-2e-5 -2.1406-0.41737-3.7426-1.252-4.8062s-2.0867-1.5953-3.7561-1.5953c-2.006 2e-5 -3.5878 0.6395-4.7456 1.9184s-1.7367 3.0224-1.7367 5.2303v12.783h-3.7359v-31.422h3.7359v12.318c0.88853-1.3597 1.9319-2.3762 3.1301-3.0493 1.2116-0.67311 2.605-1.0097 4.1802-1.0097 2.5983 3e-5 4.5639 0.80779 5.8967 2.4233 1.3328 1.6021 1.9992 3.9648 1.9992 7.0882m7.4516-8.9662h3.7157v22.617h-3.7157v-22.617m0-8.8046h3.7157v4.7052h-3.7157v-4.7052"/>
   <path transform="matrix(.66805,-.68059,.92317,.5564,0,0)" d="m-1008.1-428.49-14.134 22.088h14.134v-22.088m-1.4688-4.8776h7.0392v26.965h5.903v4.6559h-5.903v9.7551h-5.5704v-9.7551h-18.679v-5.4041l17.21-26.217"/>
   <path transform="matrix(.66805,-.68059,.92317,.5564,0,0)" d="m-991.52-287.94v11.995h-3.7359v-31.22h3.7359v3.433c0.78083-1.3462 1.7636-2.3425 2.9484-2.9887 1.1982-0.65965 2.6252-0.98949 4.2812-0.98951 2.7464 2e-5 4.9745 1.0905 6.6843 3.2714 1.7232 2.181 2.5848 5.0486 2.5848 8.6027s-0.86164 6.4217-2.5848 8.6027c-1.7098 2.181-3.9379 3.2715-6.6843 3.2715-1.6559 0-3.083-0.32311-4.2812-0.96932-1.1847-0.65968-2.1675-1.6626-2.9484-3.0089m12.642-7.8959c-2e-5 -2.7329-0.56546-4.8735-1.6963-6.4217-1.1174-1.5617-2.6589-2.3425-4.6245-2.3425s-3.5138 0.78086-4.6446 2.3425c-1.1174 1.5482-1.6761 3.6888-1.6761 6.4217s0.5587 4.8802 1.6761 6.4419c1.1309 1.5482 2.6791 2.3223 4.6446 2.3223s3.507-0.77411 4.6245-2.3223c1.1308-1.5617 1.6963-3.709 1.6963-6.4419m12.238 0c-1e-5 2.733 0.55869 4.8802 1.6761 6.4419 1.1309 1.5482 2.6791 2.3223 4.6446 2.3223s3.5138-0.77411 4.6447-2.3223c1.1308-1.5617 1.6963-3.709 1.6963-6.4419s-0.56546-4.8735-1.6963-6.4217c-1.1309-1.5617-2.6791-2.3425-4.6447-2.3425s-3.5138 0.78086-4.6446 2.3425c-1.1174 1.5482-1.6761 3.6888-1.6761 6.4217m12.662 7.8959c-0.78086 1.3463-1.7704 2.3492-2.9685 3.0089-1.1847 0.64621-2.6118 0.96932-4.2812 0.96932-2.733 0-4.961-1.0905-6.6843-3.2715-1.7098-2.181-2.5647-5.0485-2.5646-8.6027s0.85488-6.4217 2.5646-8.6027c1.7232-2.181 3.9513-3.2714 6.6843-3.2714 1.6694 2e-5 3.0964 0.32986 4.2812 0.98951 1.1982 0.64623 2.1877 1.6425 2.9685 2.9887v-3.433h3.7157v31.22h-3.7157v-11.995m24.475-15.751c-0.41736-0.24231-0.8751-0.41733-1.3732-0.52505-0.48468-0.12114-1.0232-0.18172-1.6155-0.18174-2.1002 2e-5 -3.7157 0.68662-4.8466 2.0598-1.1174 1.3598-1.6761 3.3186-1.6761 5.8765v11.915h-3.7359v-22.617h3.7359v3.5138c0.78084-1.3732 1.7973-2.3896 3.0493-3.0493 1.252-0.67311 2.7733-1.0097 4.5639-1.0097 0.25578 2e-5 0.53849 0.02021 0.84815 0.06058 0.30963 0.02695 0.65293 0.07407 1.0299 0.14136l0.0202 3.8167m18.356-2.807v3.5138c-1.0501-0.5385-2.1406-0.94238-3.2714-1.2116s-2.3022-0.40387-3.5138-0.40389c-1.8444 2e-5 -3.2311 0.28274-4.16 0.84816-0.91547 0.56545-1.3732 1.4136-1.3732 2.5445-1e-5 0.86163 0.32983 1.5415 0.98951 2.0396 0.65967 0.48467 1.9858 0.94914 3.9782 1.3934l1.2722 0.28272c2.6387 0.56544 4.51 1.3665 5.614 2.4031 1.1174 1.0232 1.6761 2.457 1.6761 4.3014-2e-5 2.1002-0.83471 3.7628-2.5041 4.988-1.6559 1.2251-3.9379 1.8377-6.8458 1.8377-1.2117 0-2.4772-0.12117-3.7965-0.3635-1.3059-0.22887-2.6858-0.5789-4.1398-1.0501v-3.8369c1.3732 0.71353 2.7262 1.252 4.059 1.6155 1.3328 0.35003 2.6522 0.52505 3.958 0.52505 1.7502 0 3.0964-0.29618 4.0388-0.88855 0.94238-0.60582 1.4136-1.454 1.4136-2.5445-1e-5 -1.0097-0.34331-1.7838-1.0299-2.3223-0.67315-0.5385-2.1608-1.0568-4.4629-1.555l-1.2924-0.30291c-2.3021-0.48465-3.9648-1.2251-4.988-2.2214-1.0232-1.0097-1.5348-2.3896-1.5348-4.1398 0-2.1271 0.75391-3.7696 2.2617-4.9274s3.6484-1.7367 6.4217-1.7367c1.3732 2e-5 2.6656 0.10099 3.8773 0.30291s2.329 0.50487 3.3522 0.90873"/>
   <path transform="matrix(.66805,-.68059,.92317,.5564,0,0)" d="m-1035.3-321.18h26.605v2.3834l-15.021 38.993h-5.8475l14.134-36.665h-19.871v-4.7113"/>
   <path transform="matrix(.65082,-.68009,.92455,.5704,0,0)" d="m-809.39-424.13h19.56v4.1931h-14.997v9.0275c0.72351-0.24663 1.447-0.42751 2.1706-0.54264 0.72351-0.13153 1.447-0.1973 2.1706-0.19733 4.1109 3e-5 7.3667 1.1264 9.7675 3.3792s3.6011 5.3031 3.6012 9.1509c-3e-5 3.9629-1.2333 7.0461-3.6998 9.2495-2.4666 2.187-5.9444 3.2805-10.433 3.2805-1.5457 0-3.1243-0.13155-4.7358-0.39465-1.595-0.26309-3.2476-0.65774-4.9578-1.1839v-5.0071c1.4799 0.80574 3.0092 1.4059 4.5878 1.8006s3.2476 0.59197 5.0071 0.59196c2.8447 1e-5 5.0975-0.74817 6.7583-2.2446s2.4912-3.5271 2.4912-6.0924-0.83042-4.596-2.4912-6.0924-3.9136-2.2445-6.7583-2.2446c-1.3319 2e-5 -2.6639 0.14801-3.9958 0.44398-1.3155 0.296-2.6639 0.75642-4.0451 1.3813v-18.499"/>
   <path transform="matrix(.6035,-.71016,.98411,.49896,0,0)" d="m-714.06-452.62h3.3256v20.604c-1e-5 2.5785-0.49403 4.4462-1.4821 5.6029-0.976 1.1567-2.5544 1.7351-4.7354 1.7351h-1.2652v-2.8195h0.88562c1.2652-1e-5 2.1267-0.29522 2.5846-0.88563 0.45787-0.57837 0.6868-1.7893 0.68681-3.6329v-20.604m0-7.8802h3.3256v4.2112h-3.3256v-4.2112m10.139 0h3.3437v16.61l9.9226-8.7297h4.2474l-10.736 9.4708 11.188 10.772h-4.3378l-10.284-9.8865v9.8865h-3.3437v-28.123m21.598 0h3.3256v28.123h-3.3256v-28.123"/>
   <path transform="matrix(.6035,-.71016,.98411,.49896,0,0)" d="m-733.05-351.9v5.7475h6.85v2.5846h-6.85v10.989c-1e-5 1.6508 0.22291 2.7111 0.66874 3.181 0.45786 0.46993 1.3796 0.70489 2.7653 0.70489h3.416v2.7834h-3.416c-2.5665 0-4.3378-0.47595-5.3137-1.4278-0.976-0.96395-1.464-2.7111-1.464-5.2414v-10.989h-2.44v-2.5846h2.44v-5.7475h3.3437m10.899 18.002v-12.254h3.3256v12.128c-1e-5 1.9158 0.37352 3.3557 1.1206 4.3197 0.74704 0.9519 1.8676 1.4278 3.3618 1.4278 1.7953 0 3.2111-0.57234 4.2474-1.717 1.0483-1.1447 1.5724-2.7051 1.5724-4.6812v-11.477h3.3256v20.243h-3.3256v-3.1087c-0.80732 1.229-1.7472 2.1448-2.8195 2.7472-1.0604 0.59042-2.2954 0.88562-3.7052 0.88562-2.3255 0-4.0908-0.72295-5.2957-2.1689s-1.8074-3.5606-1.8074-6.344m21.454-12.254h3.5244l6.3259 16.99 6.3259-16.99h3.5244l-7.5911 20.243h-4.5185l-7.5911-20.243"/>
   <path transform="matrix(.65082,-.68009,.92455,.5704,0,0)" d="m-800.87-301.68c-2.3679 2e-5 -4.2342 0.63309-5.599 1.8992-1.3484 1.2662-2.0226 3.0092-2.0226 5.2291s0.67418 3.9629 2.0226 5.2291c1.3648 1.2662 3.2312 1.8992 5.599 1.8992s4.2342-0.63307 5.599-1.8992c1.3648-1.2826 2.0472-3.0256 2.0472-5.2291-2e-5 -2.2199-0.68243-3.9629-2.0472-5.2291-1.3484-1.2661-3.2147-1.8992-5.599-1.8992m-4.9824-2.1212c-2.1377-0.52618-3.8067-1.521-5.0071-2.9845-1.184-1.4634-1.7759-3.2476-1.7759-5.3524-1e-5 -2.9434 1.0442-5.2701 3.1325-6.9803 2.1048-1.7101 4.9824-2.5652 8.6329-2.5652 3.6669 4e-5 6.5445 0.8551 8.6329 2.5652s3.1325 4.0369 3.1325 6.9803c-3e-5 2.1048-0.60022 3.8889-1.8006 5.3524-1.184 1.4635-2.8366 2.4583-4.9578 2.9845 2.4007 0.5591 4.2671 1.6526 5.599 3.2805 1.3483 1.6279 2.0225 3.6176 2.0226 5.969-3e-5 3.5683-1.0935 6.3061-3.2805 8.2136-2.1706 1.9075-5.2866 2.8612-9.3482 2.8612s-7.1859-0.95373-9.3728-2.8612c-2.1706-1.9074-3.2558-4.6453-3.2558-8.2136 0-2.3514 0.67418-4.3411 2.0226-5.969s3.2229-2.7214 5.6237-3.2805m-1.8252-7.8683c-1e-5 1.9075 0.59196 3.3956 1.7759 4.4644 1.2004 1.0689 2.8776 1.6033 5.0317 1.6032 2.1376 2e-5 3.8067-0.53439 5.0071-1.6032 1.2168-1.0688 1.8252-2.557 1.8252-4.4644s-0.60843-3.3956-1.8252-4.4644c-1.2004-1.0688-2.8694-1.6032-5.0071-1.6032-2.1541 3e-5 -3.8314 0.53445-5.0317 1.6032-1.184 1.0689-1.7759 2.557-1.7759 4.4644"/>
   <path transform="matrix(.65082,-.68009,.92455,.5704,0,0)" d="m-806.74-205.85c-2.5652 3e-5 -4.4973 1.2662-5.7964 3.7985-1.2826 2.5159-1.9239 6.3061-1.9239 11.371-1e-5 5.0482 0.64129 8.8384 1.9239 11.371 1.299 2.5159 3.2312 3.7738 5.7964 3.7738 2.5816 0 4.5138-1.2579 5.7964-3.7738 1.299-2.5323 1.9485-6.3226 1.9486-11.371-2e-5 -5.0646-0.64954-8.8548-1.9486-11.371-1.2826-2.5323-3.2147-3.7984-5.7964-3.7985m0-3.9465c4.1273 3e-5 7.2763 1.6362 9.4468 4.9084 2.187 3.2559 3.2805 7.9916 3.2805 14.207-3e-5 6.1992-1.0935 10.935-3.2805 14.207-2.1706 3.2558-5.3195 4.8837-9.4468 4.8837s-7.2845-1.6279-9.4715-4.8837c-2.1706-3.2723-3.2558-8.008-3.2558-14.207 0-6.2156 1.0853-10.951 3.2558-14.207 2.187-3.2722 5.3442-4.9084 9.4715-4.9084"/>
   <path transform="matrix(.6367,-.71826,.96,.48762,0,0)" d="m-915.81-240.34v9.2325h9.1972v4.1581h-9.1972v9.2325h-4.1934v-9.2325h-9.1972v-4.1581h9.1972v-9.2325h4.1934"/>
   <path transform="matrix(.65589,-.69231,.93288,.53996,0,0)" d="m-987.03-211.77-13.567 7.1124 13.567 7.1535-3.1245 5.7968-13.69-7.5646v14.143h-6.9891v-14.143l-13.731 7.5646-3.1246-5.7968 13.732-7.1535-13.732-7.1124 3.1246-5.7968 13.731 7.4824v-14.143h6.9891v14.143l13.69-7.4824 3.1245 5.7968"/>
   <path transform="matrix(.58764 -.65627 1.0017 .58301 0 0)" d="m-630.3-408.81c0.78365-1.4083 1.7206-2.4475 2.811-3.1176s2.3737-1.0051 3.8502-1.0051c1.9875 2e-5 3.5208 0.6985 4.5998 2.0954 1.0789 1.3856 1.6184 3.3618 1.6184 5.9286v11.516h-3.1517v-11.414c-3e-5 -1.8285-0.32371-3.1858-0.97106-4.0716s-1.6355-1.3288-2.9643-1.3288c-1.6241 2e-5 -2.9075 0.5395-3.8502 1.6184s-1.414 2.5498-1.414 4.4124v10.784h-3.1517v-11.414c-1e-5 -1.8399-0.3237-3.1971-0.97106-4.0716-0.64739-0.88587-1.6468-1.3288-2.9984-1.3288-1.6014 2e-5 -2.8734 0.54518-3.8161 1.6355-0.94268 1.079-1.414 2.5441-1.414 4.3953v10.784h-3.1517v-19.081h3.1517v2.9643c0.71552-1.1698 1.573-2.033 2.5725-2.5895s2.1863-0.83475 3.5606-0.83477c1.3856 2e-5 2.5611 0.3521 3.5265 1.0562 0.97673 0.70418 1.6979 1.7264 2.1636 3.0665m35.009 3.9013v11.516h-3.1347v-11.414c-2e-5 -1.8058-0.3521-3.1574-1.0562-4.0546s-1.7604-1.3458-3.1687-1.3459c-1.6923 2e-5 -3.0268 0.5395-4.0035 1.6184s-1.4651 2.5498-1.4651 4.4124v10.784h-3.1517v-19.081h3.1517v2.9643c0.74959-1.1471 1.6298-2.0046 2.6406-2.5725 1.0222-0.56786 2.1977-0.85179 3.5265-0.85181 2.192 2e-5 3.8502 0.68146 4.9746 2.0443 1.1244 1.3516 1.6866 3.3448 1.6866 5.9797m13.68-5.3664c-1.6809 1e-5 -3.0097 0.65875-3.9865 1.9762-0.97675 1.3061-1.4651 3.1006-1.4651 5.3834s0.48268 4.083 1.4481 5.4005c0.97673 1.3061 2.3112 1.9592 4.0035 1.9592 1.6695 0 2.9927-0.65873 3.9694-1.9762s1.4651-3.1119 1.4651-5.3834c-1e-5 -2.2601-0.48838-4.0489-1.4651-5.3664-0.97676-1.3288-2.2999-1.9932-3.9694-1.9932m0-2.6576c2.7258 2e-5 4.8667 0.8859 6.4226 2.6576s2.334 4.225 2.334 7.3596c-2e-5 3.1233-0.77801 5.5765-2.334 7.3596-1.556 1.7718-3.6969 2.6576-6.4226 2.6576-2.7372 0-4.8837-0.88588-6.4397-2.6576-1.5446-1.7831-2.3169-4.2363-2.3169-7.3596 0-3.1346 0.77231-5.5879 2.3169-7.3596 1.556-1.7718 3.7025-2.6576 6.4397-2.6576"/>
   <path transform="matrix(.58764 -.65627 1.0017 .58301 0 0)" d="m-543.06-409.62c-1.9302 2e-5 -3.4631 0.65999-4.5985 1.9799-1.1212 1.32-1.6819 3.1296-1.6819 5.4288-1e-5 2.2851 0.56061 4.0947 1.6819 5.4288 1.1354 1.32 2.6682 1.9799 4.5985 1.9799s3.456-0.65996 4.5772-1.9799c1.1354-1.3341 1.7031-3.1437 1.7032-5.4288-2e-5 -2.2992-0.56773-4.1088-1.7032-5.4288-1.1212-1.3199-2.647-1.9799-4.5772-1.9799m8.537-13.476v3.9172c-1.0787-0.51092-2.1715-0.90122-3.2786-1.1709-1.0929-0.26963-2.1786-0.40447-3.2573-0.4045-2.8386 3e-5 -5.0101 0.95805-6.5145 2.8741-1.4903 1.9161-2.3418 4.8114-2.5547 8.6861 0.83738-1.2348 1.8876-2.1786 3.1508-2.8315 1.2632-0.66704 2.6541-1.0006 4.1727-1.0006 3.1934 2e-5 5.7126 0.97224 7.5577 2.9166 1.8592 1.9303 2.7889 4.563 2.7889 7.8984-2e-5 3.2644-0.96514 5.883-2.8954 7.8558s-4.4992 2.9592-7.7068 2.9592c-3.676 0-6.4862-1.4051-8.4306-4.2153-1.9444-2.8244-2.9166-6.9119-2.9166-12.263 0-5.0243 1.1922-9.0267 3.5766-12.007 2.3844-2.9947 5.5849-4.492 9.6015-4.4921 1.0786 4e-5 2.1644 0.10648 3.2573 0.31934 1.107 0.21293 2.2566 0.53227 3.4489 0.95802"/>
   <path transform="matrix(.58354 -.68204 1.0189 .52279 0 0)" d="m-619.07-337.45h3.2297l4.0371 15.341 4.0195-15.341h3.8089l4.0371 15.341 4.0195-15.341h3.2297l-5.1429 19.659h-3.8089l-4.2302-16.113-4.2477 16.113h-3.8089l-5.1429-19.659m47.637 0-7.1088 9.5661 7.4774 10.093h-3.8089l-5.7221-7.7231-5.7221 7.7231h-3.8089l7.6353-10.286-6.9859-9.373h3.8089l5.2131 7.0034 5.2131-7.0034h3.8089m13.112 21.484c-0.91274 2.3403-1.8021 3.8674-2.668 4.5812s-2.0244 1.0707-3.4754 1.0707h-2.5802v-2.7031h1.8957c0.88932 0 1.5797-0.21063 2.0712-0.63189s1.0356-1.4159 1.6324-2.9839l0.57923-1.4744-7.9513-19.343h3.4227l6.1434 15.376 6.1434-15.376h3.4227l-8.6358 21.484m11.69-21.484h15.341v2.9488l-12.146 14.13h12.146v2.5802h-15.78v-2.9488l12.146-14.13h-11.708v-2.5802"/>
   <path transform="matrix(.58764 -.65627 1.0017 .58301 0 0)" d="m-555.94-300.63v-3.9172c1.0786 0.51095 2.1715 0.90126 3.2786 1.1709s2.1928 0.4045 3.2573 0.4045c2.8386 0 5.003-0.95092 6.4932-2.8528 1.5044-1.916 2.3631-4.8185 2.576-8.7074-0.82321 1.2206-1.8664 2.1573-3.1295 2.8102s-2.6612 0.97932-4.194 0.97931c-3.1792 1e-5 -5.6985-0.95801-7.5577-2.8741-1.8451-1.9302-2.7676-4.563-2.7676-7.8984 0-3.2643 0.96511-5.8829 2.8954-7.8558s4.4991-2.9592 7.7068-2.9592c3.6759 3e-5 6.479 1.4122 8.4093 4.2366 1.9444 2.8102 2.9166 6.8978 2.9166 12.263-3e-5 5.0101-1.1922 9.0125-3.5766 12.007-2.3702 2.9805-5.5636 4.4708-9.5802 4.4708-1.0787 0-2.1715-0.10645-3.2786-0.31934s-2.2567-0.53224-3.4489-0.95802m8.5583-13.476c1.9302 2e-5 3.456-0.65995 4.5772-1.9799 1.1354-1.3199 1.7031-3.1295 1.7032-5.4288-2e-5 -2.285-0.56774-4.0875-1.7032-5.4075-1.1212-1.3341-2.647-2.0012-4.5772-2.0012s-3.4631 0.66709-4.5985 2.0012c-1.1212 1.32-1.6819 3.1225-1.6819 5.4075-1e-5 2.2993 0.56061 4.1089 1.6819 5.4288 1.1354 1.32 2.6682 1.9799 4.5985 1.9799"/>
   <path transform="matrix(.55444 -.7205 1.1421 .31943 0 0)" d="m-446.72-265.17h-6.654l-1.9207 7.6372h6.6997l1.875-7.6372m-3.4299-13.011-2.3781 9.4894h6.6769l2.4009-9.4894h3.6586l-2.3552 9.4894h7.1342v3.5214h-8.026l-1.875 7.6372h7.2714v3.4985h-8.1632l-2.3781 9.4665h-3.6586l2.3552-9.4665h-6.6997l-2.3552 9.4665h-3.6814l2.3781-9.4665h-7.2028v-3.4985h8.0488l1.9207-7.6372h-7.3628v-3.5214h8.2546l2.3323-9.4894h3.7043"/>
   <path d="m-553.57 279.06-8.125-4.375-4.4643 5.4911-4.6875-13.884 15.938-0.17857-3.5714 4.5089 8.125 4.1964-3.2143 4.2411z" fill="none" stroke="#000" stroke-linecap="round" stroke-width="2"/>
   <path d="m-701.52 391.11s-1.1607 4.7768-0.35714 9.1071 5.7143 10.357 13.482 9.5089 13.482-4.8661 18.75-9.8661 8.1051-8.5157 6.6071-17.991c-0.75856-4.7984-6.8618-8.7842-12.589-9.1071-5.4825-0.30916-10.446 2.8125-10.446 2.8125s4.4196-0.625 7.4107 0.40178 6.7411 2.4554 8.2589 5.5357c6.0416 7.2206-4.8563 17.719-10.179 9.9107-1.4732-4.0625-1.0714-6.3839-0.75893-6.8304-5.0562 2.2412-6.858 9.2155-4.0178 13.839 2.4107 2.4554 2.7678 2.6786 3.6161 3.3036s1.1607 0.58036 0.40178 1.4286c-13.773 7.0216-16.994-1.6398-20.179-12.054z"/>
   <path transform="matrix(.75219 -.65894 .65894 .75219 -421.43 -361.29)" d="m-687.32 382.01c0 2.0464-2.9181 3.7054-6.5178 3.7054s-6.5179-1.6589-6.5179-3.7054 2.9181-3.7054 6.5179-3.7054 6.5178 1.6589 6.5178 3.7054z"/>
   <path d="m-662.95 416.74 7.9911 5.7589 17.545-20.357-7.8125-6.5625-2.4107 2.5893 4.5089 3.9732-13.348 15.357-4.3304-3.1696-2.1429 2.4107z"/>
   <path d="m-588.26 284.64c-0.22321-0.04465-13.795 1.3839-13.795 1.3839l13.125 7.0536 1.4286 0.80357-17.5 2.8125s-1.4732 1.875 0.22321 1.6518 19.554-3.125 19.554-3.125l9.8214 4.7768s-1.6964 0.80357-3.0357 2.8125-2.1429 7.1875 1.4286 10 7.3661 1.0268 8.5714-1.1607 1.3839-6.6518 1.1607-8.0804-4.2857-4.5089-7.6786-6.3393-5.4464-3.0357-5.4464-3.0357l15.938-3.2143s1.9196-1.9643-0.53571-1.6071c-3.7049 0.53889-18.795 3.5268-18.795 3.5268l-8.4375-4.375 3.9732-3.8839z"/>
   <path d="m-1095.4 333.22c-2.2861 0.06311-4.5541 0.72154-6.4375 2.4375-6.0268 5.4911-2.1071 10.228 1.6875 13.531s9.9687 3 9.9687 3l-7.0937 7.7188c0.0893 0.08929-3.1384-2.4241-6.8437-5.2812s-12.5-4.442-18.125 0.46875 0.6874 10.826 1.9374 12.031 13.197 7.5536 17.75 3.3125 21.067-19.268 23.344-24-3.1027-9.0313-4.8438-9.9688c-1.197-0.64453-6.3143-3.3888-11.344-3.25zm0.25 3.5312c5.1769-0.02227 12.262 3.0119 11.469 6.9062-1.806 8.8658-19.487 2.386-16.406-4.7812 0.638-1.4844 2.5844-2.1149 4.9375-2.125zm-18.812 18.75c0.4396-0.00645 0.9063-0.00223 1.375 0.03125 4.391 1.5276 13.41 6.6839 7.9062 10.594-1.6518 1.2946-5.116 1.4554-7.4374 0.5625s-7.3395-3.8839-7.25-7.1875c0.078-2.8906 2.3288-3.9548 5.4062-4z"/>
  </g>
  <path transform="matrix(.99107 0 0 .99513 4.7207 .13019)" d="m918.19 26.75c-2.274 0.11002-3.4453 1.8906-5.9062 4.625-5.625 6.25-17.652 20.165-33.812 37.219s-34.223 37.496-45.562 48.031-9.8169 12.054-3.6562 15.625 30.897 16.076 31.344 16.344c0-0.17857 5.7143 2.6652 13.125 6.5938 3.071 1.628 5.3774 3.2571 7.9062 5.2188 30.674-31.216 62.091-64.328 94.625-100.03l0.0625-2.3125c-11.626-6.6134-26.402-14.909-38.562-21.969-11.853-6.8806-16.639-9.4852-19.562-9.3438zm-98.688 105.94c-2.2224 0.04604-3.7723 1.183-5.7812 3.125-5.3571 5.1786-33.022 34.121-61.594 62.156s-74.29 68.558-78.219 72.844-5.5447 5.0223 7.3125 12.344c15.355 8.6444 30.846 17.082 45.531 26.469 49.277-45.29 99.119-92.639 151.09-145.38-2.647-1.9317-4.9512-3.5854-6.0938-4.3125-3.9286-2.5-9.2857-4.3036-30-16.625-12.946-7.7009-18.546-10.702-22.25-10.625zm-156.47 149.5c-2.8042 0.08515-4.1406 1.8594-4.8438 2.5625-1.25 1.25-28.031 25.719-58.031 50.719s-59.098 48.571-67.312 55-3.3974 8.7366 3.0312 12.844 36.067 25.018 36.781 25.375c-0.15809-0.07904 5.4232 4.0666 11.969 8.9062 45.445-40.609 90.032-80.271 135-121.47-2.0619-1.4874-3.5479-2.5441-3.75-2.625-0.8929-0.35714-1.0672-1.0714-8.0312-5s-25.188-14.625-35.188-22.125c-4.375-3.2812-7.4439-4.2537-9.625-4.1875z" fill="url(#s)" filter="url(#d)" opacity=".175"/>
  <path d="m-103.09-363.59c-0.14651 0.07281-0.35344 0.20058-0.46875 0.25-5 2.1429-10.013 3.2009-14.656 2.8438s-12.839 3.5804-17.125 6.4375-26.451 16.781-31.094 19.281-4.6472 4.9955-3.2188 6.7812c0.97345 1.2168 4.1007 1.2702 1.25 3.7812 20.198-12.296 56.75-34.236 65.312-39.375z" fill="url(#r)"/>
  <path d="m1336.6 273.94-1.5626 0.59375c-114.75 150.04-223.17 303.26-359.22 442.66l0.03125 0.09375c2.5166 1.9898 4.9786 4.0458 7.375 6.1562 8.3928 8.9286 16.259 25.723 17.687 28.938s8.3661 0.17857 11.938-2.5 15.554-19.304 37.875-42.875 64.629-71.259 89.094-100.19 118.58-151.23 137.16-174.62 59.116-85.723 62.687-90.188 15.527-20.879 16.063-22.844 3.5758-7.6786 0.7187-18.75c-2.6741-10.362-12.189-19.089-19.844-26.469z" fill="url(#q)" opacity=".6"/>
  <path d="m-79.5 155.11s4.5-3.25 1.75-5-10.25-5-9.25-7.5 2.25-8 4-8.25 207 145 262.5 184 146 91.5 174 110 55 41 65.75 45.75 19 6.5 25.5-1.25 5.25-9 7.25-8 371.5 253.5 371.5 253.5 35.25 27.25 40 36.75 4.25 34 3.5 38.5-1.25 14.75-1.25 14.75-293-205-364.5-254c-71.534-49.024-222-148-308.5-207.5s-272.5-191-272.25-191.75z" fill="#7b7875"/>
  <path d="m-79.5 155.11s4.5-3.25 1.75-5-10.25-5-9.25-7.5 2.25-8 4-8.25 207 145 262.5 184 146 91.5 174 110 55 41 65.75 45.75 19 6.5 25.5-1.25 5.25-9 7.25-8 371.5 253.5 371.5 253.5 35.25 27.25 40 36.75 4.25 34 3.5 38.5-1.25 14.75-1.25 14.75-293-205-364.5-254c-71.534-49.024-222-148-308.5-207.5s-272.5-191-272.25-191.75z" fill="url(#p)" opacity=".7"/>
  <g transform="translate(387.96)" fill="none" stroke="#000" stroke-linecap="round">
   <path d="m-788-136.14s-7.0672-26.416-8.3125-33.125c-1.3711-7.3863 2.5625-11.125 25.312 5.375s200.25 143 241 169.75 175.5 120.5 204.25 141.25 138.25 93.75 168.25 114.25 137 95.25 174.75 124.25 138.25 100.75 179.75 129 183.75 126 232.75 163.75 83 60.75 97.75 74.75 18.5 13.25 18.5 25.5-2.75 27.75-4.5 38.75-1.75 17-1.75 17" stroke-width="3"/>
   <path d="m-626.25 33.362s-8.6578-24.061-7.25-31c0.875-4.3125 2-11.5 28.5 7.25s259.75 181.25 270.75 189.25 189 129.88 221.5 150.12 169.5 107.88 172.5 110.62-5.5625 15.25-10.812 16.5" stroke-width="3"/>
   <path d="m-329.62 202.61c0 0.5 2.125 29.875 2.125 29.875" stroke-width="3"/>
   <path d="m-627 23.362s70 55.75 75.5 59.5 73.75 45 75.5 46.25 2.75 5.75 2.75 5.75" stroke-width="2"/>
  </g>
  <path d="m1094.6 665.36s-44 50.25-47.75 57.25-15.5 43.25-15.75 46 5 1.75 5 1.75-3.25 2.5-6.25 2.5-6 1.25-1.75-14.5 6.75-29.25 9-33 19.25-23.25 23.25-27.5 30.25-31.5 32-33.5 2.25 1.5 2.25 1z"/>
  <path d="m1068.9 712.86c-5 7-10.75 16.25-13.75 13.5s0-12.5 4.75-18.25 10.75-12.75 12.25-13.75c7.3229-3.467-2.3462 17.1-3.25 18.5z"/>
  <path d="m490.02 323.69 16.971 12.374s13.789 8.1317 27.577-3.182l61.165-49.497" fill="none" stroke="#000" stroke-linecap="round" stroke-width="8"/>
  <path d="m490.02 323.69 16.971 12.374s13.789 8.1317 27.577-3.182l61.165-49.497" fill="none" stroke="#4c6a66" stroke-linecap="round" stroke-width="7"/>
  <path d="m453.96 175.2-65.407 48.437s-10.607 12.728-1.4142 20.86 19.092 18.031 19.092 18.031l0.3535 0.35355" fill="none" stroke="#000" stroke-linecap="round" stroke-width="8"/>
  <path d="m453.96 175.2-65.407 48.437s-10.607 12.728-1.4142 20.86 19.092 18.031 19.092 18.031l0.3535 0.35355" fill="none" stroke="#436c97" stroke-linecap="round" stroke-width="7"/>
  <path d="m685.01-26.683 46.316-43.31s10.96-8.4853 21.39 0 17.324 14.496 17.324 14.496" fill="none" stroke="#000" stroke-linecap="round" stroke-width="7"/>
  <path d="m685.01-26.683 46.316-43.31s10.96-8.4853 21.39 0 17.324 14.496 17.324 14.496" fill="none" stroke="#436c97" stroke-linecap="round" stroke-width="6"/>
  <path d="m846.58-3.8786 18.738 11.137s8.6621 7.0711 0.35355 15.733-42.603 45.432-42.603 45.432" fill="none" stroke="#000" stroke-linecap="round" stroke-width="7"/>
  <path d="m846.58-3.8786 18.738 11.137s8.6621 7.0711 0.35355 15.733-42.603 45.432-42.603 45.432" fill="none" stroke="#9b1e1e" stroke-linecap="round" stroke-width="6"/>
  <path transform="matrix(1.4806 .1599 -.19479 2.507 2214.5 125.07)" d="m-917.5 14.862c0 0.82843-2.0147 1.5-4.5 1.5s-4.5-0.67157-4.5-1.5 2.0147-1.5 4.5-1.5 4.5 0.67157 4.5 1.5z"/>
  <path transform="matrix(1.3439 .14514 -.1768 2.2755 2088.2 114.9)" d="m-917.5 14.862c0 0.82843-2.0147 1.5-4.5 1.5s-4.5-0.67157-4.5-1.5 2.0147-1.5 4.5-1.5 4.5 0.67157 4.5 1.5z" fill="#9b1e1e"/>
  <path transform="matrix(.59546 -.64765 1.0151 .57535 0 0)" d="m434.45 487.22v4.0023c-1.21-0.66702-2.4278-1.1634-3.6533-1.4892-1.21-0.34126-2.4355-0.5119-3.6765-0.51192-2.7768 2e-5 -4.9331 0.88425-6.4688 2.6527-1.5358 1.753-2.3036 4.2195-2.3036 7.3996s0.76787 5.6544 2.3036 7.4229c1.5358 1.753 3.692 2.6294 6.4688 2.6294 1.241 0 2.4665-0.16288 3.6765-0.48865 1.2255-0.34128 2.4432-0.84545 3.6533-1.5125v3.9558c-1.1945 0.55846-2.4355 0.9773-3.7231 1.2565-1.2721 0.27923-2.6294 0.41885-4.0721 0.41885-3.9247 0-7.0428-1.2333-9.3542-3.6998s-3.4671-5.794-3.4671-9.9825c0-4.2505 1.1634-7.5935 3.4904-10.029 2.3424-2.4355 5.5458-3.6532 9.6102-3.6533 1.3186 2e-5 2.6061 0.13964 3.8627 0.41884 1.2565 0.26375 2.4743 0.66708 3.6533 1.21"/>
  <path d="m630.28 3.1875c-10.538 0.16449-21.797 2.9531-32.281 10.688-30.5 22.5-61 49.5-61 49.5 0.5 0-20.5 19-35.5 31.5s-36.5 39-19.5 58 28.25 28.375 28.25 28.375c8.5958-1.4326 15.785-2.0046 23.591-6.2322-18.883-19.701-33.784-25.884-14.841-53.643 22.5-23 34.5-33 70.5-61.5s76.5-0.75 76.5-0.75l21.25-34.25s-7.75-7-14.75-10.5c-4.5938-2.2969-22.101-11.502-42.219-11.188zm63.969 25.188s-4.5 9.5-9.5 15.75-11 16.5-12 18-0.75 2.5 11.5 9.25 38.5 22.25 43.25 24 6 2.5 10.5-3.75 13.75-20 14.25-21.75-35-26.5-44.25-32.25-14-9.25-13.75-9.25zm64.594 47.188c-0.11909 0.06554 0.65625 0.8125 0.65625 0.8125s-12.75 15.5-16.5 19.75-5.5 6.5-5.5 6.5 15 10.75 16.75 11.5 27 23.25-4 52.25-41.75 40.5-62.75 58-52.666 14.338-75.375 0c-1.2574-1.4793-4.187-1.4738-6.8125 0.84375-5.9006 5.2087-18.83 12.112-20 11.938l28.188 15.469s34.25 14 63.5-11.5 101-94.5 101-94.5 30.5-32 2.75-54.25c-18.211-14.602-21.679-16.938-21.906-16.812zm-219.07 104.05s3.2249-0.48744-7.2751 3.5126-15.25 5-15 5.25l62.75 45.25s-2.75-0.75 8.25-7.25 10.939-7.8055 10.939-7.8055l-59.664-38.957z" fill="url(#m)"/>
  <path d="m493.22 240.12-0.96875 0.84375-4.75 4.25-1.3438 1.1562 1.4062 1.125 5.2812 4.25 1 0.78125 0.9375-0.84375 4.7812-4.25 1.3125-1.1875-1.375-1.0938-5.3125-4.25-0.96875-0.78125zm0.09375 3.9375 2.9375 2.3125-2.5312 2.2188-2.9062-2.3438 2.5-2.1875zm-11.062 0.4375c-2.024 0.04765-5.5843 0.57285-6.8438 2.0312-1.6794 1.9446-1.3272 5.9336 0.75 8.1875s9.1832 5.5315 10.781 5.625c2.1189 0.124 3.3155-4.4148 1.5625-4.9688-1.2074-0.38152-2.7555-0.70451-5.9375-1.5s-4.9915-3.5845-4.5938-5.75 5.625-2.0312 5.625-2.0312c0.0442 0 0.78255-1.1906 0.03125-1.5-0.18782-0.07734-0.70034-0.10963-1.375-0.09375zm22.844 2.9062c-2.0911 0.27734-3.4531 4.577-1.6875 5.2812 1.2973 0.51737 2.9702 0.99091 6.4062 2.125s5.1821 4.3549 4.5625 6.6875-6.3437 1.75-6.3438 1.75c-0.0488-0.00369-0.95738 1.2245-0.15625 1.625s7.1755 0.54692 9.1875-1.4375 1.9725-6.3647-0.125-9-9.6548-6.796-11.406-7.0312c-0.14514-0.0195-0.29809-0.01849-0.4375 0zm-7.9688 10.312c-2.251 0.011-4.1995 1.0936-4.7812 2.9062-0.77573 2.4169 1.1473 5.2129 4.2812 6.2188s6.318-0.1456 7.0938-2.5625-1.1473-5.2129-4.2812-6.2188c-0.78348-0.25147-1.5622-0.34742-2.3125-0.34375z" fill="#6a87b1" stroke="#000" stroke-linecap="round" stroke-width=".5"/>
  <path d="m630.28 3.1875c-10.538 0.16449-21.797 2.9531-32.281 10.688-30.5 22.5-61 49.5-61 49.5 0.5 0-20.5 19-35.5 31.5s-36.5 39-19.5 58 28.25 28.375 28.25 28.375c8.5958-1.4326 15.785-2.0046 23.591-6.2322-18.883-19.701-33.784-25.884-14.841-53.643 22.5-23 34.5-33 70.5-61.5s76.5-0.75 76.5-0.75l21.25-34.25s-7.75-7-14.75-10.5c-4.5938-2.2969-22.101-11.502-42.219-11.188zm63.969 25.188s-4.5 9.5-9.5 15.75-11 16.5-12 18-0.75 2.5 11.5 9.25 38.5 22.25 43.25 24 6 2.5 10.5-3.75 13.75-20 14.25-21.75-35-26.5-44.25-32.25-14-9.25-13.75-9.25zm64.594 47.188c-0.11909 0.06554 0.65625 0.8125 0.65625 0.8125s-12.75 15.5-16.5 19.75-5.5 6.5-5.5 6.5 15 10.75 16.75 11.5 27 23.25-4 52.25-41.75 40.5-62.75 58-52.666 14.338-75.375 0c-1.2574-1.4793-4.187-1.4738-6.8125 0.84375-5.9006 5.2087-18.83 12.112-20 11.938l28.188 15.469s34.25 14 63.5-11.5 101-94.5 101-94.5 30.5-32 2.75-54.25c-18.211-14.602-21.679-16.938-21.906-16.812zm-219.07 104.05s3.2249-0.48744-7.2751 3.5126-15.25 5-15 5.25l62.75 45.25s-2.75-0.75 8.25-7.25 10.939-7.8055 10.939-7.8055l-59.664-38.957z" fill="url(#l)"/>
  <path d="m630.28 3.1875c-10.538 0.16449-21.797 2.9531-32.281 10.688-30.5 22.5-61 49.5-61 49.5 0.5 0-20.5 19-35.5 31.5s-36.5 39-19.5 58 28.25 28.375 28.25 28.375c8.5958-1.4326 15.785-2.0046 23.591-6.2322-18.883-19.701-33.784-25.884-14.841-53.643 22.5-23 34.5-33 70.5-61.5s76.5-0.75 76.5-0.75l21.25-34.25s-7.75-7-14.75-10.5c-4.5938-2.2969-22.101-11.502-42.219-11.188zm63.969 25.188s-4.5 9.5-9.5 15.75-11 16.5-12 18-0.75 2.5 11.5 9.25 38.5 22.25 43.25 24 6 2.5 10.5-3.75 13.75-20 14.25-21.75-35-26.5-44.25-32.25-14-9.25-13.75-9.25zm64.594 47.188c-0.11909 0.06554 0.65625 0.8125 0.65625 0.8125s-12.75 15.5-16.5 19.75-5.5 6.5-5.5 6.5 15 10.75 16.75 11.5 27 23.25-4 52.25-41.75 40.5-62.75 58-52.666 14.338-75.375 0c-1.2574-1.4793-4.187-1.4738-6.8125 0.84375-5.9006 5.2087-18.83 12.112-20 11.938l28.188 15.469s34.25 14 63.5-11.5 101-94.5 101-94.5 30.5-32 2.75-54.25c-18.211-14.602-21.679-16.938-21.906-16.812zm-219.07 104.05s3.2249-0.48744-7.2751 3.5126-15.25 5-15 5.25l62.75 45.25s-2.75-0.75 8.25-7.25 10.939-7.8055 10.939-7.8055l-59.664-38.957z" fill="url(#k)"/>
  <path d="m630.28 3.1875c-10.538 0.16449-21.797 2.9531-32.281 10.688-30.5 22.5-61 49.5-61 49.5 0.5 0-20.5 19-35.5 31.5s-36.5 39-19.5 58 28.25 28.375 28.25 28.375c8.5958-1.4326 15.785-2.0046 23.591-6.2322-18.883-19.701-33.784-25.884-14.841-53.643 22.5-23 34.5-33 70.5-61.5s76.5-0.75 76.5-0.75l21.25-34.25s-7.75-7-14.75-10.5c-4.5938-2.2969-22.101-11.502-42.219-11.188zm63.969 25.188s-4.5 9.5-9.5 15.75-11 16.5-12 18-0.75 2.5 11.5 9.25 38.5 22.25 43.25 24 6 2.5 10.5-3.75 13.75-20 14.25-21.75-35-26.5-44.25-32.25-14-9.25-13.75-9.25zm64.594 47.188c-0.11909 0.06554 0.65625 0.8125 0.65625 0.8125s-12.75 15.5-16.5 19.75-5.5 6.5-5.5 6.5 15 10.75 16.75 11.5 27 23.25-4 52.25-41.75 40.5-62.75 58-52.666 14.338-75.375 0c-1.2574-1.4793-4.187-1.4738-6.8125 0.84375-5.9006 5.2087-18.83 12.112-20 11.938l28.188 15.469s34.25 14 63.5-11.5 101-94.5 101-94.5 30.5-32 2.75-54.25c-18.211-14.602-21.679-16.938-21.906-16.812zm-219.07 104.05s3.2249-0.48744-7.2751 3.5126-15.25 5-15 5.25c25.435 11.076 46.224 53.844 71 38 11-6.5 10.939-7.8055 10.939-7.8055l-59.664-38.957z" fill="url(#j)" opacity=".70833"/>
  <path d="m630.28 3.1875c-10.538 0.16449-21.797 2.9531-32.281 10.688-30.5 22.5-61 49.5-61 49.5 0.5 0-20.5 19-35.5 31.5s-36.5 39-19.5 58 28.25 28.375 28.25 28.375c8.5958-1.4326 15.785-2.0046 23.591-6.2322-18.883-19.701-33.784-25.884-14.841-53.643 22.5-23 34.5-33 70.5-61.5s76.5-0.75 76.5-0.75l21.25-34.25s-7.75-7-14.75-10.5c-4.5938-2.2969-22.101-11.502-42.219-11.188zm63.969 25.188s-4.5 9.5-9.5 15.75-11 16.5-12 18-0.75 2.5 11.5 9.25 38.5 22.25 43.25 24 6 2.5 10.5-3.75 13.75-20 14.25-21.75-35-26.5-44.25-32.25-14-9.25-13.75-9.25zm64.594 47.188c-0.11909 0.06554 0.65625 0.8125 0.65625 0.8125s-12.75 15.5-16.5 19.75-5.5 6.5-5.5 6.5 15 10.75 16.75 11.5 27 23.25-4 52.25-41.75 40.5-62.75 58-52.666 14.338-75.375 0c-1.2574-1.4793-4.187-1.4738-6.8125 0.84375-5.9006 5.2087-18.83 12.112-20 11.938l28.188 15.469s34.25 14 63.5-11.5 101-94.5 101-94.5 30.5-32 2.75-54.25c-18.211-14.602-21.679-16.938-21.906-16.812zm-219.07 104.05s3.2249-0.48744-7.2751 3.5126-15.25 5-15 5.25l62.75 45.25s-2.75-0.75 8.25-7.25 10.939-7.8055 10.939-7.8055l-59.664-38.957z" fill="url(#i)" opacity=".53889"/>
  <path d="m630.28 3.1875c-10.538 0.16449-21.797 2.9531-32.281 10.688-30.5 22.5-61 49.5-61 49.5 0.5 0-20.5 19-35.5 31.5s-36.5 39-19.5 58 28.25 28.375 28.25 28.375c8.5958-1.4326 15.785-2.0046 23.591-6.2322-18.883-19.701-33.784-25.884-14.841-53.643 22.5-23 34.5-33 70.5-61.5s76.5-0.75 76.5-0.75l21.25-34.25s-7.75-7-14.75-10.5c-4.5938-2.2969-22.101-11.502-42.219-11.188zm63.969 25.188s-4.5 9.5-9.5 15.75-11 16.5-12 18-0.75 2.5 11.5 9.25 38.5 22.25 43.25 24 6 2.5 10.5-3.75 13.75-20 14.25-21.75-35-26.5-44.25-32.25-14-9.25-13.75-9.25zm64.594 47.188c-0.11909 0.06554 0.65625 0.8125 0.65625 0.8125s-12.75 15.5-16.5 19.75-5.5 6.5-5.5 6.5 15 10.75 16.75 11.5 27 23.25-4 52.25-41.75 40.5-62.75 58-52.666 14.338-75.375 0c-1.2574-1.4793-4.187-1.4738-6.8125 0.84375-5.9006 5.2087-18.83 12.112-20 11.938l28.188 15.469s34.25 14 63.5-11.5 101-94.5 101-94.5 30.5-32 2.75-54.25c-18.211-14.602-21.679-16.938-21.906-16.812zm-219.07 104.05s3.2249-0.48744-7.2751 3.5126-15.25 5-15 5.25l62.75 45.25s-2.75-0.75 8.25-7.25 10.939-7.8055 10.939-7.8055l-59.664-38.957z" fill="url(#h)" opacity=".53889"/>
  <path d="m603.52 62.766s20.86-16.617 55.154 1.7678 80.257 48.083 80.257 48.083 37.123 18.031-1.4142 52.679-51.619 46.669-51.619 46.669-33.941 26.517-68.236 5.6569-76.368-50.558-76.368-50.558-31.113-22.981-12.021-39.952l74.246-64.347z" fill="#949794"/>
  <path d="m611.06 108.37s-7.0711 1.4142-11.667 6.7175-12.021 20.506-7.4246 31.466 22.274 29.698 43.841 32.173 38.537-4.2426 46.316-10.96 16.264-14.142 14.496-26.163-5.6568-18.031-14.142-24.395c-27.991-16.749-44.67-10.046-71.418-8.8388z" fill="#555755"/>
  <path d="m606.82 121.1s-8.4853 3.8891-10.607 10.253-2.4748 19.092 1.0607 23.688 22.444 25.763 52.326 23.688c29.345-2.0376 42.78-21.834 43.134-26.87 0.1751-2.4939-0.7071-13.435-4.5962-19.799s-18.031-14.849-39.598-14.496-41.366 4.2426-41.719 3.5355z" fill="#a8a6a0"/>
  <path d="m606.82 121.1s-8.4853 3.8891-10.607 10.253-2.4748 19.092 1.0607 23.688 22.444 25.763 52.326 23.688c29.345-2.0376 42.78-21.834 43.134-26.87 0.1751-2.4939-0.7071-13.435-4.5962-19.799s-18.031-14.849-39.598-14.496-41.366 4.2426-41.719 3.5355z" fill="url(#g)"/>
  <path d="m606.82 121.1s-8.4853 3.8891-10.607 10.253-2.4748 19.092 1.0607 23.688 22.444 25.763 52.326 23.688c29.345-2.0376 42.78-21.834 43.134-26.87 0.1751-2.4939-0.7071-13.435-4.5962-19.799s-18.031-14.849-39.598-14.496-41.366 4.2426-41.719 3.5355z" fill="url(#f)"/>
  <path d="m630.88 92.625c-12.021 9.8995-12.402 9.3824-15.938 13.625-2.334 2.8007-6.8073 7.1344-6.4375 12.406l-2.5 21.719c1.0775 2.2063 2.797 4.9096 4.9062 6.875 10.96 9.1924 26.469 17.875 26.469 17.875s13.086 7.2432 26.875-2.6562c12.975-9.3154 18.558-17.525 18.625-17.625l2.625-19.844c1.2269-3.9509 1.5947-10.559-6.1875-16.281-12.021-8.8388-26.875-17.875-26.875-17.875-7.2158-1.5365-15.021-2.1212-21.562 1.7812z" fill="#4e473c"/>
  <path d="m631.71 93.507c-11.402 9.3898-11.737 9.3898-15.091 13.414s-11.402 11.402-1.0061 20.121 23.475 17.438 23.475 17.438 12.408 8.0484 25.486-1.3414c12.382-8.8897 17.438-15.091 17.438-15.091s7.0423-10.396-4.3596-18.78-25.487-17.438-25.487-17.438-13.749-3.3535-20.456 1.6768z" fill="url(#e)"/>
  <path transform="matrix(.59546 -.64765 1.0151 .57535 0 0)" d="m434.45 487.22v4.0023c-1.21-0.66702-2.4278-1.1634-3.6533-1.4892-1.21-0.34126-2.4355-0.5119-3.6765-0.51192-2.7768 2e-5 -4.9331 0.88425-6.4688 2.6527-1.5358 1.753-2.3036 4.2195-2.3036 7.3996s0.76787 5.6544 2.3036 7.4229c1.5358 1.753 3.692 2.6294 6.4688 2.6294 1.241 0 2.4665-0.16288 3.6765-0.48865 1.2255-0.34128 2.4432-0.84545 3.6533-1.5125v3.9558c-1.1945 0.55846-2.4355 0.9773-3.7231 1.2565-1.2721 0.27923-2.6294 0.41885-4.0721 0.41885-3.9247 0-7.0428-1.2333-9.3542-3.6998s-3.4671-5.794-3.4671-9.9825c0-4.2505 1.1634-7.5935 3.4904-10.029 2.3424-2.4355 5.5458-3.6532 9.6102-3.6533 1.3186 2e-5 2.6061 0.13964 3.8627 0.41884 1.2565 0.26375 2.4743 0.66708 3.6533 1.21"/>
  <path transform="translate(-418.6 -483.56)" d="m561.81 88.062c-2.8572 1.0714-366.06 237.84-366.06 237.84-0.06669-0.0667 25.532 16.903 49.812 32.969 101.39-47.1 237.23-75.906 386.44-75.906 161.36 0 307.07 33.671 410.5 87.75 10.951-9.5231 11.334-12.153 5.75-15.875-6.4285-4.2857-483.58-267.85-486.44-266.78z" fill="url(#o)"/>
 </g>
</svg>
